<svg xmlns="http://www.w3.org/2000/svg" width="407" height="28" fill="none"><path fill="#fff" d="M15.51 16.444h8.603L15.221 1.072h3.672L31.71 23.176h-3.672l-2.268-3.852H13.817l1.692-2.88Zm3.24-.972L14.392 8.02 3.63 26.56l-2.016-2.88L14.357 1.684l7.992 13.788h-3.6Zm-6.66 4.824h12.42l-2.017 2.88h-12.06l-2.232 3.852H4.53l9.864-16.992 1.8 3.132-4.104 7.128Zm19.583 3.852-1.98 2.88h-3.816l1.98-2.88h3.816Zm-4.644-.576-1.944 2.844-1.656-2.844 1.98-2.844 1.62 2.844ZM43.674 3.952h-4.32v-2.88h11.988v2.88h-4.32v15.66l-3.348 2.952V3.952Zm-.972 20.196h4.32v2.88H35.034v-2.88h4.32V8.56l3.348-2.988v18.576ZM35.034 4.672l3.348-2.988v2.52l-3.348 2.988v-2.52Zm16.308 18.756-3.348 2.988v-2.52l3.348-2.988v2.52ZM38.706 7.804h-2.88l3.204-2.88h2.916l-3.24 2.88Zm8.604 15.372h-2.844l3.204-2.88h2.844l-3.204 2.88Zm.684-15.984V4.924h2.484l-2.484 2.268Zm-9.612 15.984h-2.484l2.484-2.268v2.268ZM72.146 27.028V5.536l3.348 3.024v5.976h12.888v2.88H75.494v9.612h-3.348ZM84.062 3.952H71.174v22.464l-3.348-2.988V1.072h16.236v2.88Zm-7.884 3.852-3.204-2.88H84.35l3.204 2.88H76.178Zm.288 2.88h7.92l3.132 2.88H76.466v-2.88Zm11.916-6.012v2.52l-3.348-2.988v-2.52l3.348 2.988ZM96.662 13.456c0-7.776 5.22-12.384 11.376-12.384 6.012 0 11.772 4.824 11.772 13.356 0 7.632-5.148 12.312-10.944 12.672 4.428-1.872 7.596-6.372 7.596-12.456 0-6.012-3.816-10.476-8.568-10.476-4.068 0-7.884 3.24-7.884 9.036 0 5.184 3.204 8.604 7.272 9a6.28 6.28 0 0 1-3.024.756c-4.14 0-7.596-3.96-7.596-9.504Zm18.828 1.188c0 7.776-5.22 12.384-11.268 12.384-6.804 0-11.88-5.688-11.88-13.356 0-7.632 5.22-12.348 10.98-12.636-4.284 1.8-7.632 6.156-7.632 12.42 0 6.012 3.816 10.476 8.532 10.476 4.104 0 7.92-3.24 7.92-9.036 0-5.184-3.24-8.568-7.308-9 .936-.468 1.98-.756 3.06-.756 4.14 0 7.596 3.96 7.596 9.504ZM135.665 15.508l6.624 7.668h-4.356l-6.624-7.668h-3.744v7.668h-3.348V1.072h11.376c5.472 0 9.18 3.42 9.18 9.144 0 4.248-2.052 7.2-5.148 8.352l-2.088-2.412c2.412-.828 3.888-2.844 3.888-5.94 0-3.852-2.34-6.264-6.624-6.264h-7.236v8.676h6.948c1.728 0 2.628-1.044 2.628-2.448 0-1.512-1.116-2.376-2.592-2.376h-1.98l-3.24-2.88h5.4c3.816 0 5.724 2.124 5.724 5.292 0 3.06-1.584 4.968-4.788 5.292Zm-3.78 10.908-3.348-2.988v-6.336l3.348 3.024v6.3Zm-3.348-14.76v-6.12l3.348 3.024v3.096h-3.348Zm12.744 15.372-2.484-2.88h4.32l2.52 2.88h-4.356Zm-13.428-2.88 3.204 2.88h-2.808l-3.24-2.88h2.844Zm4.716-4.788-3.24-2.88h1.476l2.52 2.88h-.756ZM161.143 14.392c0-7.344 4.86-13.32 11.88-13.32 4.32 0 8.604 3.096 10.332 7.776l-2.737 2.484c-1.008-4.464-4.283-7.164-7.595-7.164-4.68 0-8.533 4.428-8.533 10.476 0 6.264 3.277 10.62 7.561 12.42-5.436-.36-10.908-4.644-10.908-12.672Zm7.668.504c0 5.796 4.176 9.036 7.884 9.036 3.996 0 7.236-2.592 8.28-7.272l2.772 2.484c-1.872 5.112-6.192 7.884-10.908 7.884-6.156 0-11.377-4.608-11.377-12.384 0-5.724 3.601-9.504 7.597-9.504.936 0 1.943.252 2.843.792-3.996.504-7.091 3.852-7.091 8.964Zm7.884 8.064c-1.008 0-1.98-.252-2.916-.756 3.888-.432 6.12-3.312 6.768-5.76h3.527c-.864 4.176-3.815 6.516-7.379 6.516Zm.576-21.924c4.212.18 8.423 2.7 10.295 7.452h-3.347c-1.404-3.744-4.068-6.228-6.948-7.452Zm9.72 8.424-2.449 2.196h-2.808l2.448-2.196h2.809ZM203.333 19.36l8.532 7.668h-4.932l-8.496-7.668h-2.88v7.668h-3.348V4.924h10.512c3.816 0 5.724 2.124 5.724 5.292 0 3.348-1.908 5.292-5.4 5.292h-5.724l3.24-2.88h1.98c1.692 0 2.592-1.044 2.592-2.448 0-1.512-1.116-2.376-2.628-2.376h-6.948v8.676h7.56c4.068 0 6.3-2.484 6.3-6.264 0-3.852-2.34-6.264-6.624-6.264h-9.792l3.24-2.88h7.344c5.472 0 9.18 3.42 9.18 9.144 0 5.76-3.6 9.144-9 9.144h-.432Zm9.936 7.524-7.488-6.696a9.556 9.556 0 0 0 3.564-1.224l6.336 5.724-2.412 2.196Zm-16.74-11.988v-6.12h3.348v3.096l-3.348 3.024Zm0 11.52v-6.084h1.404l1.944 1.764v1.332l-3.348 2.988ZM223.107 27.028V5.536l3.348 3.024v5.976h12.888v2.88h-12.888v6.732h12.888v2.88h-16.236Zm11.916-23.076h-12.888v22.464l-3.348-2.988V1.072h16.236v2.88Zm-7.884 3.852-3.204-2.88h11.376l3.204 2.88h-11.376Zm.288 12.492h7.884l3.204 2.88h-11.088v-2.88Zm0-9.612h7.92l3.168 2.88h-11.088v-2.88Zm11.916-6.012v2.52l-3.348-2.988v-2.52l3.348 2.988ZM250.529 16.444h8.604l1.692 2.88h-11.952l-2.268 3.852h-3.672l12.816-22.104h3.672l-8.892 15.372Zm9.72-8.424-4.356 7.452h-3.6l7.992-13.788 12.744 21.996-2.016 2.88-10.764-18.54Zm-10.116 12.276h12.42l-4.104-7.128 1.8-3.132 9.864 16.992h-3.672l-2.232-3.852h-12.06l-2.016-2.88Zm-5.184 6.732-1.98-2.88h3.816l1.98 2.88h-3.816Zm4.608-.612-1.944-2.844 1.62-2.844 1.98 2.844-1.656 2.844ZM281.677 23.176h-3.348V3.952h-5.076l-3.204-2.88h21.024l3.168 2.88h-12.564v19.224Zm4.32 3.24-3.348-2.988V5.5l3.348 3.024v17.892Zm-2.52-21.492h11.628v2.88h-8.46l-3.168-2.88Zm-9.936 2.88v-2.88h3.816v2.88h-3.816Zm-.972-.648-3.348-2.988V1.684l3.348 2.988v2.484Zm9.396 16.992 3.204 2.88h-2.808l-3.24-2.88h2.844ZM306.396 3.952h-4.32v-2.88h11.988v2.88h-4.32v15.66l-3.348 2.952V3.952Zm-.972 20.196h4.32v2.88h-11.988v-2.88h4.32V8.56l3.348-2.988v18.576Zm-7.668-19.476 3.348-2.988v2.52l-3.348 2.988v-2.52Zm16.308 18.756-3.348 2.988v-2.52l3.348-2.988v2.52ZM301.428 7.804h-2.88l3.204-2.88h2.916l-3.24 2.88Zm8.604 15.372h-2.844l3.204-2.88h2.844l-3.204 2.88Zm.684-15.984V4.924h2.484l-2.484 2.268Zm-9.612 15.984h-2.484l2.484-2.268v2.268ZM320.605 4.924l8.82 15.192 11.016-19.044h3.636l-14.688 25.38-12.456-21.528h3.672Zm13.32 22.104h-3.672l14.76-25.488 2.016 2.88-13.104 22.608ZM321.577 4.564l1.98-2.88 7.668 13.248-1.8 3.132-7.848-13.5Zm-.792-.612h-3.816l1.98-2.88h3.816l-1.98 2.88ZM351.446 27.1v-3.024h3.348V27.1h-3.348Zm-4.32-6.3 3.42 3.024v2.7l-3.42-3.06V20.8Zm.756-.576h2.628l3.456 2.952h-2.772l-3.312-2.952ZM363.803 27.028V5.536l3.348 3.024v5.976h12.888v2.88h-12.888v6.732h12.888v2.88h-16.236Zm11.916-23.076h-12.888v22.464l-3.348-2.988V1.072h16.236v2.88Zm-7.884 3.852-3.204-2.88h11.376l3.204 2.88h-11.376Zm.288 12.492h7.884l3.204 2.88h-11.088v-2.88Zm0-9.612h7.92l3.168 2.88h-11.088v-2.88Zm11.916-6.012v2.52l-3.348-2.988v-2.52l3.348 2.988ZM392.016 23.932c2.844 0 3.888-1.692 3.888-2.88 0-1.26-.684-2.304-2.592-3.564l-2.916-1.944c-3.312-2.196-5.112-4.572-5.112-7.848 0-4.5 3.6-6.624 7.524-6.696-2.448 1.116-4.176 3.24-4.176 6.048 0 2.7 1.332 4.608 3.42 6.012l3.636 2.412c2.412 1.62 3.672 3.384 3.672 5.688 0 3.6-3.42 5.868-7.488 5.868-3.996 0-6.984-2.16-8.028-5.112l2.736-2.484c.576 2.772 2.7 4.5 5.436 4.5Zm4.932-19.764c-2.808 0-3.888 1.692-3.888 2.988 0 1.152.54 2.196 2.628 3.564l3.636 2.412c2.412 1.62 4.356 3.636 4.356 7.02 0 4.068-3.636 6.876-7.524 6.948 2.448-1.116 4.176-3.204 4.176-5.94 0-2.808-1.476-4.752-3.78-6.264l-3.636-2.412c-2.196-1.476-3.312-3.24-3.312-5.436 0-3.708 3.42-5.976 7.488-5.976 3.96 0 6.948 2.16 7.992 5.148l-2.736 2.448c-.576-2.772-2.592-4.5-5.4-4.5Zm0 .972c2.016 0 3.924 1.296 4.464 3.744h-3.528c-.36-1.26-1.26-2.664-2.592-3.456.396-.18.972-.288 1.656-.288Zm-4.932 17.82c-1.944 0-3.924-1.26-4.464-3.744h3.492c.396 1.296 1.26 2.664 2.592 3.492-.396.144-.972.252-1.62.252Z"/><path fill="#111419" d="M8.812 28h-5.4L.424 23.68 14.104.1h5.4l13.68 23.616L30.232 28h-5.436l-2.232-3.852h-11.52L8.812 28Zm15.3-11.556h-8.604l-1.692 2.88h11.952l2.268 3.852h3.672L18.892 1.072H15.22l8.892 15.372Zm-9.72-8.424 4.356 7.452h3.6L14.356 1.684 1.612 23.68l2.016 2.88L14.392 8.02Zm10.116 12.276h-12.42l4.104-7.128-1.8-3.132-9.864 16.992H8.2l2.232-3.852h12.06l2.016-2.88Zm5.184 6.732 1.98-2.88h-3.816l-1.98 2.88h3.816Zm-4.608-.612 1.944-2.844-1.62-2.844-1.98 2.844 1.656 2.844Zm-7.56-10.944-.72-1.26-.72 1.26h1.44ZM52.312 23.896 47.74 28H34.06v-4.572l4.32-3.852v-10.8h-4.32V4.204L38.632.1h13.68v4.572l-4.32 3.852v10.8h4.32v4.572ZM39.352 3.952h4.32v18.612l3.348-2.952V3.952h4.32v-2.88H39.352v2.88Zm7.668 20.196H42.7V5.572L39.352 8.56v15.588h-4.32v2.88H47.02v-2.88ZM38.38 1.684l-3.348 2.988v2.52l3.348-2.988v-2.52Zm9.612 24.732 3.348-2.988v-2.52l-3.348 2.988v2.52ZM35.824 7.804h2.88l3.24-2.88h-2.916l-3.204 2.88Zm8.64 15.372h2.844l3.204-2.88h-2.844l-3.204 2.88Zm3.528-18.252v2.268l2.484-2.268h-2.484ZM35.896 23.176h2.484v-2.268l-2.484 2.268ZM72.145 5.536v21.492h3.348v-9.612H88.38v-2.88H75.493V8.56l-3.348-3.024Zm-.972-1.584H84.06v-2.88H67.825v22.356l3.348 2.988V3.952Zm1.8.972 3.204 2.88h11.376l-3.204-2.88H72.973Zm3.492 13.464V28h-5.04l-4.572-4.104V.1H84.78l4.572 4.104v4.572H76.465v.936h8.28l4.608 4.104v4.572H76.465Zm7.92-7.704h-7.92v2.88h11.052l-3.132-2.88Zm3.996-3.492v-2.52l-3.348-2.988v2.52l3.348 2.988ZM108.252 28h-3.996c-7.128 0-12.888-5.832-12.888-14.328C91.368 5.212 97.272.1 103.896.1h3.96c6.732 0 12.924 5.4 12.924 14.328 0 8.46-5.904 13.572-12.528 13.572ZM96.66 13.456c0 5.544 3.456 9.504 7.596 9.504a6.28 6.28 0 0 0 3.024-.756c-4.068-.396-7.272-3.816-7.272-9 0-5.796 3.816-9.036 7.884-9.036 4.752 0 8.568 4.464 8.568 10.476 0 6.084-3.168 10.584-7.596 12.456 5.796-.36 10.944-5.04 10.944-12.672 0-8.532-5.76-13.356-11.772-13.356-6.156 0-11.376 4.608-11.376 12.384Zm18.828 1.188c0-5.544-3.456-9.504-7.596-9.504-1.08 0-2.124.288-3.06.756 4.068.432 7.308 3.816 7.308 9 0 5.796-3.816 9.036-7.92 9.036-4.716 0-8.532-4.464-8.532-10.476 0-6.264 3.348-10.62 7.632-12.42-5.76.288-10.98 5.004-10.98 12.636 0 7.668 5.076 13.356 11.88 13.356 6.048 0 11.268-4.608 11.268-12.384Zm-4.32.216c0-5.22-3.816-8.352-7.668-8.028-1.512 1.368-2.52 3.564-2.52 6.408 0 5.256 3.816 8.388 7.632 8.064 1.548-1.404 2.556-3.6 2.556-6.444ZM132.855 20.332V28h-5.04l-4.572-4.104V.1h12.384c5.472 0 10.116 3.312 10.116 10.116 0 4.86-2.232 7.848-5.436 9.144l7.488 8.64h-6.984l-6.66-7.668h-1.296Zm9.432 2.844-6.624-7.668c3.204-.324 4.788-2.232 4.788-5.292 0-3.168-1.908-5.292-5.724-5.292h-5.4l3.24 2.88h1.98c1.476 0 2.592.864 2.592 2.376 0 1.404-.9 2.448-2.628 2.448h-6.948V3.952h7.236c4.284 0 6.624 2.412 6.624 6.264 0 3.096-1.476 5.112-3.888 5.94l2.088 2.412c3.096-1.152 5.148-4.104 5.148-8.352 0-5.724-3.708-9.144-9.18-9.144h-11.376v22.104h3.348v-7.668h3.744l6.624 7.668h4.356Zm-13.752.252 3.348 2.988v-6.3l-3.348-3.024v6.336Zm0-17.892v6.12h3.348V8.56l-3.348-3.024Zm10.26 18.612 2.484 2.88h4.356l-2.52-2.88h-4.32Zm-4.176-15.372h-1.764v2.88h1.728c1.26 0 1.62-.792 1.62-1.476 0-.864-.576-1.404-1.584-1.404Zm-3.564 18.252-3.204-2.88h-2.844l3.24 2.88h2.808Zm-1.728-10.548 3.24 2.88h.756l-2.52-2.88h-1.476ZM179.933 12.628c-.324-2.592-1.44-4.536-2.844-5.832-3.708-.108-7.308 2.952-7.308 8.064 0 2.88 1.116 5.04 2.7 6.444 4.068.252 6.66-2.628 7.272-5.832h5.436l3.672 3.312C187.277 24.256 182.489 28 176.657 28h-3.96c-6.156 0-12.528-4.68-12.528-13.608C160.169 6.148 165.677.1 173.057.1h3.744c5.472 0 10.08 3.204 12.024 9.072l-3.852 3.456h-5.04Zm-18.792 1.764c0 8.028 5.472 12.312 10.908 12.672-4.284-1.8-7.56-6.156-7.56-12.42 0-6.048 3.852-10.476 8.532-10.476 3.312 0 6.588 2.7 7.596 7.164l2.736-2.484c-1.728-4.68-6.012-7.776-10.332-7.776-7.02 0-11.88 5.976-11.88 13.32Zm7.668.504c0-5.112 3.096-8.46 7.092-8.964a5.578 5.578 0 0 0-2.844-.792c-3.996 0-7.596 3.78-7.596 9.504 0 7.776 5.22 12.384 11.376 12.384 4.716 0 9.036-2.772 10.908-7.884l-2.772-2.484c-1.044 4.68-4.284 7.272-8.28 7.272-3.708 0-7.884-3.24-7.884-9.036Zm7.884 8.064c3.564 0 6.516-2.34 7.38-6.516h-3.528c-.648 2.448-2.88 5.328-6.768 5.76.936.504 1.908.756 2.916.756Zm.576-21.924c2.88 1.224 5.544 3.708 6.948 7.452h3.348c-1.872-4.752-6.084-7.272-10.296-7.452Zm7.272 10.62 2.448-2.196h-2.808l-2.448 2.196h2.808ZM200.848 23.896 196.276 28h-5.04V4.204L195.808.1h7.812c5.472 0 10.116 3.312 10.116 10.116 0 3.708-1.26 6.48-3.492 8.136l6.984 6.3L213.52 28h-7.092l-5.58-5.04v.936Zm11.016 3.132-8.532-7.668h.432c5.4 0 9-3.384 9-9.144 0-5.724-3.708-9.144-9.18-9.144h-7.344L193 3.952h9.792c4.284 0 6.624 2.412 6.624 6.264 0 3.78-2.232 6.264-6.3 6.264h-7.56V7.804h6.948c1.512 0 2.628.864 2.628 2.376 0 1.404-.9 2.448-2.592 2.448h-1.98l-3.24 2.88h5.724c3.492 0 5.4-1.944 5.4-5.292 0-3.168-1.908-5.292-5.724-5.292h-10.512v22.104h3.348V19.36h2.88l8.496 7.668h4.932Zm-6.084-6.84 7.488 6.696 2.412-2.196-6.336-5.724a9.556 9.556 0 0 1-3.564 1.224Zm-9.252-11.412v6.12l3.348-3.024V8.776h-3.348Zm0 11.556v6.084l3.348-2.988v-1.332l-1.944-1.764h-1.404Zm4.32-8.676h1.764c1.224 0 1.584-.792 1.584-1.44 0-.9-.576-1.44-1.584-1.44h-1.764v2.88ZM240.314 4.204v4.572h-12.888v.936h8.316l4.572 4.104v4.572h-12.888v.936h8.316l4.572 4.104V28h-17.928l-4.572-4.104V.1h17.928l4.572 4.104Zm-17.208 1.332v21.492h16.236v-2.88h-12.888v-6.732h12.888v-2.88h-12.888V8.56l-3.348-3.024Zm-.972-1.584h12.888v-2.88h-16.236v22.356l3.348 2.988V3.952Zm1.8.972 3.204 2.88h11.376l-3.204-2.88h-11.376Zm11.376 15.372h-7.884v2.88h11.088l-3.204-2.88Zm.036-9.612h-7.92v2.88h11.088l-3.168-2.88Zm3.996-3.492v-2.52l-3.348-2.988v2.52l3.348 2.988ZM271.227 28h-5.4l-2.232-3.852h-11.52L249.843 28h-5.436l-2.952-4.284L255.135.1h5.4l13.68 23.58-2.988 4.32Zm-12.096-11.556h-8.604l8.892-15.372h-3.672l-12.816 22.104h3.672l2.268-3.852h11.952l-1.692-2.88Zm-3.24-.972 4.356-7.452 10.764 18.54 2.016-2.88-12.744-21.996-7.992 13.788h3.6Zm6.66 4.824h-12.42l2.016 2.88h12.06l2.232 3.852h3.672l-9.864-16.992-1.8 3.132 4.104 7.128Zm-19.584 3.852 1.98 2.88h3.816l-1.98-2.88h-3.816Zm4.644-.576 1.944 2.844 1.656-2.844-1.98-2.844-1.62 2.844Zm10.224-9.36-.72 1.26h1.44l-.72-1.26ZM268.247 4.672V.1h23.257l4.572 4.104v4.572h-9.109V28h-5.04l-4.572-4.104V8.776h-4.5l-4.608-4.104Zm10.081 18.504h3.348V3.952h12.564l-3.168-2.88h-21.024l3.203 2.88h5.077v19.224Zm4.319.252 3.349 2.988V8.524L282.647 5.5v17.928Zm12.457-18.504h-11.629l3.168 2.88h8.461v-2.88Zm-21.565 0v2.88h3.816v-2.88h-3.816Zm-4.319-.756 3.348 2.988V4.672l-3.348-2.988v2.484Zm15.948 22.86-3.204-2.88h-2.844l3.239 2.88h2.809ZM315.035 23.896 310.463 28h-13.68v-4.572l4.32-3.852v-10.8h-4.32V4.204L301.355.1h13.68v4.572l-4.32 3.852v10.8h4.32v4.572Zm-12.96-19.944h4.32v18.612l3.348-2.952V3.952h4.32v-2.88h-11.988v2.88Zm7.668 20.196h-4.32V5.572l-3.348 2.988v15.588h-4.32v2.88h11.988v-2.88Zm-8.64-22.464-3.348 2.988v2.52l3.348-2.988v-2.52Zm9.612 24.732 3.348-2.988v-2.52l-3.348 2.988v2.52ZM298.547 7.804h2.88l3.24-2.88h-2.916l-3.204 2.88Zm8.64 15.372h2.844l3.204-2.88h-2.844l-3.204 2.88Zm3.528-18.252v2.268l2.484-2.268h-2.484Zm-12.096 18.252h2.484v-2.268l-2.484 2.268ZM334.536 28h-5.4l-13.68-23.616L318.408.1h5.436l7.992 13.824L339.828.1h5.4l2.988 4.32L334.536 28Zm-5.112-7.884-8.82-15.192h-3.672l12.456 21.528 14.688-25.38h-3.636l-11.016 19.044Zm.828 6.912h3.672L347.028 4.42l-2.016-2.88-14.76 25.488Zm-6.696-25.344-1.98 2.88 7.848 13.5 1.8-3.132-7.668-13.248Zm-6.588 2.268h3.816l1.98-2.88h-3.816l-1.98 2.88ZM350.796 28l-4.572-4.104v-4.572h4.68l4.788 4.104V28h-4.896Zm.648-3.924V27.1h3.348v-3.024h-3.348Zm-.9-.252-3.42-3.024v2.664l3.42 3.06v-2.7Zm-.036-3.6h-2.628l3.312 2.952h2.772l-3.456-2.952ZM381.009 4.204v4.572h-12.888v.936h8.316l4.572 4.104v4.572h-12.888v.936h8.316l4.572 4.104V28h-17.928l-4.572-4.104V.1h17.928l4.572 4.104Zm-17.208 1.332v21.492h16.236v-2.88h-12.888v-6.732h12.888v-2.88h-12.888V8.56l-3.348-3.024Zm-.972-1.584h12.888v-2.88h-16.236v22.356l3.348 2.988V3.952Zm1.8.972 3.204 2.88h11.376l-3.204-2.88h-11.376Zm11.376 15.372h-7.884v2.88h11.088l-3.204-2.88Zm.036-9.612h-7.92v2.88h11.088l-3.168-2.88Zm3.996-3.492v-2.52l-3.348-2.988v2.52l3.348 2.988ZM395.974 28h-4.104c-4.968 0-8.172-3.06-9.144-6.444l3.672-3.312h5.436c.288 1.836 1.404 3.204 2.7 3.816.288-.324.396-.684.396-1.008 0-.9-.576-1.728-2.376-2.916l-2.916-1.944c-3.564-2.376-5.328-5.004-5.328-8.496 0-5.112 4.068-7.596 8.64-7.596h4.14c4.968 0 8.172 3.06 9.144 6.444l-3.672 3.312h-5.436c-.324-1.8-1.404-3.168-2.736-3.816-.252.36-.36.756-.36 1.116 0 .792.432 1.62 2.52 2.988l3.636 2.412c2.556 1.692 4.464 3.996 4.464 7.596 0 4.644-4.068 7.848-8.676 7.848Zm-3.96-4.068c-2.736 0-4.86-1.728-5.436-4.5l-2.736 2.484c1.044 2.952 4.032 5.112 8.028 5.112 4.068 0 7.488-2.268 7.488-5.868 0-2.304-1.26-4.068-3.672-5.688l-3.636-2.412c-2.088-1.404-3.42-3.312-3.42-6.012 0-2.808 1.728-4.932 4.176-6.048-3.924.072-7.524 2.196-7.524 6.696 0 3.276 1.8 5.652 5.112 7.848l2.916 1.944c1.908 1.26 2.592 2.304 2.592 3.564 0 1.188-1.044 2.88-3.888 2.88Zm4.932-19.764c2.808 0 4.824 1.728 5.4 4.5l2.736-2.448c-1.044-2.988-4.032-5.148-7.992-5.148-4.068 0-7.488 2.268-7.488 5.976 0 2.196 1.116 3.96 3.312 5.436l3.636 2.412c2.304 1.512 3.78 3.456 3.78 6.264 0 2.736-1.728 4.824-4.176 5.94 3.888-.072 7.524-2.88 7.524-6.948 0-3.384-1.944-5.4-4.356-7.02l-3.636-2.412c-2.088-1.368-2.628-2.412-2.628-3.564 0-1.296 1.08-2.988 3.888-2.988Zm0 .972c-.684 0-1.26.108-1.656.288 1.332.792 2.232 2.196 2.592 3.456h3.528c-.54-2.448-2.448-3.744-4.464-3.744Zm-4.932 17.82c.648 0 1.224-.108 1.62-.252-1.332-.828-2.196-2.196-2.592-3.492h-3.492c.54 2.484 2.52 3.744 4.464 3.744Z"/></svg>