<svg width="628" height="213" viewBox="0 0 628 213" fill="none" xmlns="http://www.w3.org/2000/svg">
<path fill-rule="evenodd" clip-rule="evenodd" d="M160.337 176.411C152.914 181.599 143.958 184.627 134.672 184.627C114.38 184.627 102.339 170.17 106.926 150.299C111.528 130.367 130.224 115.885 150.542 115.885C158.542 115.885 165.253 118.129 170.17 122.068C170.917 121.243 171.76 120.498 172.671 119.855L175.343 108.284C176.702 102.395 182.704 97.6211 188.748 97.6211H212.948C218.991 97.6211 222.788 102.395 221.429 108.284L218.559 120.717C218.267 121.98 217.761 123.193 217.087 124.318C217.242 125.443 217.188 126.655 216.896 127.919L213.946 140.695C212.745 145.899 207.918 150.233 202.64 151.17L197.694 172.592C196.335 178.481 190.333 183.255 184.29 183.255H168.978C164.315 183.255 160.989 180.413 160.337 176.411ZM141.241 149.057C141.238 149.044 141.237 149.037 141.237 149.037C141.237 149.037 141.239 149.043 141.241 149.057ZM144.54 149.037C144.54 149.037 144.536 149.044 144.527 149.057C144.535 149.043 144.54 149.037 144.54 149.037ZM257.155 141.792C258.852 143.641 259.471 146.509 258.656 150.041C257.865 153.469 256.071 156.279 253.717 158.174C252.357 159.268 250.81 160.057 249.161 160.482C248.236 160.721 247.28 160.845 246.306 160.845C240.674 160.845 237.615 156.558 239.12 150.041C240.585 143.696 245.603 139.495 251.235 139.495C252.377 139.495 253.418 139.662 254.34 139.981C255.464 140.37 256.413 140.983 257.155 141.792ZM248.626 182.854C244.902 184.063 241.074 184.627 237.383 184.627C228.078 184.627 220.514 181.006 216.034 174.535C211.605 168.137 210.58 159.557 212.717 150.299C217.18 130.969 234.453 115.885 253.958 115.885C257.563 115.885 261.018 116.418 264.073 117.562C264.955 117.362 265.854 117.257 266.753 117.257H280.745C282.595 117.257 284.235 117.704 285.58 118.494C287.291 117.704 289.137 117.257 290.987 117.257H332.171C338.215 117.257 342.012 122.03 340.653 127.919L330.339 172.592C328.979 178.481 322.978 183.255 316.934 183.255H301.622C299.708 183.255 298.018 182.776 296.647 181.934C294.887 182.776 292.977 183.255 291.062 183.255H275.75C273.9 183.255 272.26 182.807 270.915 182.017C269.204 182.807 267.358 183.255 265.508 183.255H251.516C250.482 183.255 249.514 183.115 248.626 182.854ZM249.972 151.039C249.972 151.039 249.969 151.032 249.967 151.019C249.971 151.032 249.972 151.039 249.972 151.039ZM250.326 149.287C250.336 149.27 250.342 149.263 250.342 149.263C250.342 149.263 250.337 149.272 250.326 149.287ZM133.241 150.041C131.736 156.558 134.443 160.845 140.163 160.845C145.883 160.845 150.568 156.558 152.073 150.041C153.538 143.696 150.812 139.495 145.092 139.495C139.372 139.495 134.706 143.696 133.241 150.041Z" fill="#FFCB2F"/>
<path d="M330.912 147.627C329.453 150.359 329.453 153.637 330.91 156.369C330.91 156.37 330.911 156.372 330.912 156.373L330.913 156.375L330.921 156.39L330.944 156.433C330.963 156.468 330.988 156.514 331.02 156.572C331.083 156.686 331.171 156.845 331.286 157.046C331.515 157.448 331.847 158.017 332.284 158.729C333.157 160.152 334.449 162.151 336.171 164.533C339.61 169.291 344.79 175.62 351.791 181.955C365.805 194.637 387.288 207.472 416.662 207.472C446.035 207.472 467.518 194.637 481.533 181.955C488.533 175.62 493.713 169.291 497.152 164.533C498.874 162.151 500.167 160.152 501.039 158.729C501.476 158.017 501.808 157.448 502.037 157.046C502.152 156.845 502.24 156.686 502.304 156.572C502.335 156.514 502.36 156.468 502.379 156.433L502.402 156.39L502.41 156.375L502.411 156.373C503.87 153.64 503.87 150.361 502.412 147.629L502.413 147.631C502.415 147.633 502.416 147.636 497.585 150.203L502.411 147.627L330.912 147.627Z" fill="#FFCB2F" stroke="#FFCB2F" stroke-width="10.9431" stroke-linejoin="round"/>
<path d="M342.912 147.627C341.453 150.359 341.453 153.637 342.91 156.369C342.91 156.37 342.911 156.372 342.912 156.373L342.913 156.375L342.921 156.39L342.944 156.433C342.963 156.468 342.988 156.514 343.02 156.572C343.083 156.686 343.171 156.845 343.286 157.046C343.515 157.448 343.847 158.017 344.284 158.729C345.157 160.152 346.449 162.151 348.171 164.533C351.61 169.291 356.79 175.62 363.791 181.955C377.805 194.637 399.288 207.472 428.662 207.472C458.035 207.472 479.518 194.637 493.533 181.955C500.533 175.62 505.713 169.291 509.152 164.533C510.874 162.151 512.167 160.152 513.039 158.729C513.476 158.017 513.808 157.448 514.037 157.046C514.152 156.845 514.24 156.686 514.304 156.572C514.335 156.514 514.36 156.468 514.379 156.433L514.402 156.39L514.41 156.375L514.411 156.373C515.87 153.64 515.87 150.361 514.412 147.629L514.413 147.631C514.415 147.633 514.416 147.636 509.585 150.203L514.411 147.627L342.912 147.627Z" fill="black" stroke="#FA966D" stroke-width="10.9431" stroke-linejoin="round"/>
<path d="M526.121 156.375L526.122 156.373C527.581 153.64 527.581 150.36 526.122 147.627L526.121 147.625L526.113 147.61L526.09 147.567C526.071 147.532 526.046 147.486 526.014 147.428C525.951 147.314 525.862 147.155 525.748 146.954C525.519 146.552 525.187 145.983 524.75 145.271C523.877 143.848 522.584 141.849 520.862 139.467C517.424 134.709 512.244 128.38 505.243 122.045C491.228 109.363 469.746 96.5285 440.372 96.5285C389.7 96.5285 362.671 135.894 356.266 146.534C354.225 149.924 354.225 154.076 356.266 157.466C362.671 168.106 389.7 207.472 440.372 207.472C469.746 207.472 491.228 194.637 505.243 181.955C512.244 175.62 517.424 169.291 520.862 164.533C522.584 162.151 523.877 160.152 524.75 158.729C525.187 158.017 525.519 157.448 525.748 157.046C525.862 156.845 525.951 156.686 526.014 156.572C526.046 156.514 526.071 156.468 526.09 156.433L526.113 156.39L526.121 156.375Z" fill="#4D4DFF" stroke="white" stroke-width="10.9431" stroke-linejoin="round"/>
<circle cx="440.5" cy="152.5" r="23" fill="black" stroke="white" stroke-width="9"/>
<path fill-rule="evenodd" clip-rule="evenodd" d="M33.2822 99.3764C31.5767 100.161 29.7367 100.606 27.8927 100.606H12.5807C6.53699 100.606 2.73973 95.8319 4.09927 89.9431L14.4128 45.2702C14.7531 43.7963 15.3842 42.3923 16.2339 41.1154C15.4505 38.4717 15.3579 35.4589 16.1017 32.2371C18.566 21.5633 29.4734 13 40.374 13C51.1334 13 58.3475 21.4275 55.8519 32.2371C55.666 33.0422 55.4342 33.8331 55.1599 34.6076H94.5249C100.569 34.6076 104.366 39.3814 103.006 45.2702L92.6928 89.9431C91.3333 95.8319 85.3318 100.606 79.2881 100.606H63.9761C62.0615 100.606 60.3723 100.127 59.0011 99.2847C57.2412 100.127 55.3307 100.606 53.4161 100.606H38.1041C36.2601 100.606 34.6253 100.161 33.2822 99.3764ZM139.628 100.205C140.516 100.466 141.484 100.606 142.518 100.606H156.51C162.554 100.606 168.555 95.8319 169.915 89.9431L180.228 45.2702C181.588 39.3814 177.791 34.6076 171.747 34.6076H157.755C156.856 34.6076 155.957 34.7133 155.075 34.9126C152.021 33.7694 148.565 33.2357 144.96 33.2357C125.455 33.2357 108.182 48.3196 103.72 67.6495C101.582 76.908 102.607 85.488 107.036 91.8862C111.516 98.3573 119.08 101.978 128.385 101.978C132.076 101.978 135.904 101.414 139.628 100.205ZM203.817 100.212C202.817 100.468 201.793 100.606 200.768 100.606H186.776C180.732 100.606 176.935 95.8319 178.294 89.9431L193.141 25.6347C194.501 19.7459 200.502 14.9721 206.546 14.9721H221.682C227.726 14.9721 231.523 19.7459 230.163 25.6347L228.402 33.2634C228.868 33.2448 229.33 33.2357 229.785 33.2357C237.015 33.2357 242.94 35.326 247.304 38.9398L250.376 25.6347C251.735 19.7459 257.737 14.9721 263.78 14.9721H279.092C282.379 14.9721 285.002 16.3841 286.491 18.6195C290.89 15.1423 296.344 13 301.796 13C312.555 13 319.769 21.4275 317.274 32.2371C317.088 33.0422 316.856 33.8331 316.582 34.6076H355.21L357.282 25.6347C358.641 19.7459 364.643 14.9721 370.687 14.9721H385.998C392.042 14.9721 395.839 19.7459 394.48 25.6347L392.408 34.6078C392.427 34.6077 392.446 34.6076 392.465 34.6076H406.985C412.607 34.6076 416.356 38.7585 415.657 44.2092C415.4 46.2152 415.153 47.7744 414.543 50.4149C413.065 56.8156 409.814 64.9182 403.322 71.6877L407.926 84.6573C409.098 87.9575 408.146 92.0109 405.43 95.2971C402.713 98.5833 398.64 100.606 394.74 100.606H377.668C375.612 100.606 373.77 100.044 372.313 99.034C370.418 100.031 368.326 100.606 366.228 100.606H350.916C349.073 100.606 347.439 100.162 346.097 99.3777C344.392 100.162 342.553 100.606 340.71 100.606H325.398C323.483 100.606 321.794 100.127 320.423 99.2847C318.663 100.127 316.752 100.606 314.838 100.606H299.526C297.682 100.606 296.047 100.161 294.704 99.3764C292.998 100.161 291.158 100.606 289.314 100.606H274.002C272.741 100.606 271.578 100.398 270.539 100.015C269.323 100.398 268.063 100.606 266.802 100.606H244.01C239.972 100.606 236.937 98.4748 235.773 95.3042C229.258 99.6148 221.798 101.978 214.267 101.978C210.635 101.978 207.037 101.44 203.817 100.212Z" fill="#FFCB2F"/>
<path fill-rule="evenodd" clip-rule="evenodd" d="M170.116 176.411C162.693 181.599 153.737 184.627 144.451 184.627C124.16 184.627 112.118 170.17 116.706 150.299C121.307 130.367 140.003 115.885 160.322 115.885C168.321 115.885 175.033 118.129 179.949 122.068C180.696 121.243 181.539 120.498 182.451 119.855L185.122 108.284C186.482 102.395 192.483 97.6211 198.527 97.6211H222.727C228.771 97.6211 232.568 102.395 231.208 108.284L228.338 120.717C228.046 121.98 227.541 123.193 226.867 124.318C227.021 125.443 226.967 126.655 226.675 127.919L223.725 140.695C222.524 145.899 217.697 150.233 212.419 151.17L207.474 172.592C206.114 178.481 200.112 183.255 194.069 183.255H178.757C174.094 183.255 170.769 180.413 170.116 176.411ZM151.02 149.057C151.017 149.044 151.016 149.037 151.016 149.037C151.016 149.037 151.018 149.043 151.02 149.057ZM154.32 149.037C154.32 149.037 154.316 149.044 154.306 149.057C154.315 149.043 154.32 149.037 154.32 149.037ZM266.934 141.792C268.631 143.641 269.251 146.509 268.435 150.041C267.644 153.469 265.851 156.279 263.496 158.174C262.137 159.268 260.59 160.057 258.94 160.482C258.016 160.721 257.059 160.845 256.085 160.845C250.453 160.845 247.395 156.558 248.899 150.041C250.364 143.696 255.382 139.495 261.014 139.495C262.156 139.495 263.197 139.662 264.119 139.981C265.243 140.37 266.192 140.983 266.934 141.792ZM258.405 182.854C254.682 184.063 250.854 184.627 247.163 184.627C237.857 184.627 230.293 181.006 225.813 174.535C221.384 168.137 220.359 159.557 222.497 150.299C226.959 130.969 244.232 115.885 263.737 115.885C267.342 115.885 270.798 116.418 273.852 117.562C274.735 117.362 275.633 117.257 276.532 117.257H290.524C292.374 117.257 294.014 117.704 295.36 118.494C297.07 117.704 298.916 117.257 300.766 117.257H341.95C347.994 117.257 351.791 122.03 350.432 127.919L340.118 172.592C338.759 178.481 332.757 183.255 326.714 183.255H311.402C309.487 183.255 307.798 182.776 306.427 181.934C304.667 182.776 302.756 183.255 300.842 183.255H285.53C283.679 183.255 282.04 182.807 280.694 182.017C278.984 182.807 277.137 183.255 275.287 183.255H261.295C260.261 183.255 259.293 183.115 258.405 182.854ZM259.751 151.039C259.751 151.039 259.749 151.032 259.746 151.019C259.75 151.032 259.751 151.039 259.751 151.039ZM260.105 149.287C260.115 149.27 260.121 149.263 260.121 149.263C260.121 149.263 260.116 149.272 260.105 149.287ZM143.02 150.041C141.516 156.558 144.222 160.845 149.942 160.845C155.662 160.845 160.348 156.558 161.852 150.041C163.317 143.696 160.591 139.495 154.871 139.495C149.151 139.495 144.485 143.696 143.02 150.041Z" fill="#FA966D"/>
<path fill-rule="evenodd" clip-rule="evenodd" d="M42.2822 99.3764C40.5767 100.161 38.7367 100.606 36.8927 100.606H21.5807C15.537 100.606 11.7397 95.8319 13.0993 89.9431L23.4128 45.2702C23.7531 43.7963 24.3842 42.3923 25.2339 41.1154C24.4505 38.4717 24.3579 35.4589 25.1017 32.2371C27.566 21.5633 38.4734 13 49.374 13C60.1334 13 67.3475 21.4275 64.8519 32.2371C64.666 33.0422 64.4342 33.8331 64.1599 34.6076H103.525C109.569 34.6076 113.366 39.3814 112.006 45.2702L101.693 89.9431C100.333 95.8319 94.3318 100.606 88.2881 100.606H72.9761C71.0615 100.606 69.3723 100.127 68.0011 99.2847C66.2412 100.127 64.3307 100.606 62.4161 100.606H47.1041C45.2601 100.606 43.6253 100.161 42.2822 99.3764ZM148.628 100.205C149.516 100.466 150.484 100.606 151.518 100.606H165.51C171.554 100.606 177.555 95.8319 178.915 89.9431L189.228 45.2702C190.588 39.3814 186.791 34.6076 180.747 34.6076H166.755C165.856 34.6076 164.957 34.7133 164.075 34.9126C161.021 33.7694 157.565 33.2357 153.96 33.2357C134.455 33.2357 117.182 48.3196 112.72 67.6495C110.582 76.908 111.607 85.488 116.036 91.8862C120.516 98.3573 128.08 101.978 137.385 101.978C141.076 101.978 144.904 101.414 148.628 100.205ZM212.817 100.212C211.817 100.468 210.793 100.606 209.768 100.606H195.776C189.732 100.606 185.935 95.8319 187.294 89.9431L202.141 25.6347C203.501 19.7459 209.502 14.9721 215.546 14.9721H230.682C236.726 14.9721 240.523 19.7459 239.163 25.6347L237.402 33.2634C237.868 33.2448 238.33 33.2357 238.785 33.2357C246.015 33.2357 251.94 35.326 256.304 38.9398L259.376 25.6347C260.735 19.7459 266.737 14.9721 272.78 14.9721H288.092C291.379 14.9721 294.002 16.3841 295.491 18.6195C299.89 15.1423 305.344 13 310.796 13C321.555 13 328.769 21.4275 326.274 32.2371C326.088 33.0422 325.856 33.8331 325.582 34.6076H364.21L366.282 25.6347C367.641 19.7459 373.643 14.9721 379.687 14.9721H394.998C401.042 14.9721 404.839 19.7459 403.48 25.6347L401.408 34.6078C401.427 34.6077 401.446 34.6076 401.465 34.6076H415.985C421.607 34.6076 425.356 38.7585 424.657 44.2092C424.4 46.2152 424.153 47.7744 423.543 50.4149C422.065 56.8156 418.814 64.9182 412.322 71.6877L416.926 84.6573C418.098 87.9575 417.146 92.0109 414.43 95.2971C411.713 98.5833 407.64 100.606 403.74 100.606H386.668C384.612 100.606 382.77 100.044 381.313 99.034C379.418 100.031 377.326 100.606 375.228 100.606H359.916C358.073 100.606 356.439 100.162 355.097 99.3777C353.392 100.162 351.553 100.606 349.71 100.606H334.398C332.483 100.606 330.794 100.127 329.423 99.2847C327.663 100.127 325.752 100.606 323.838 100.606H308.526C306.682 100.606 305.047 100.161 303.704 99.3764C301.998 100.161 300.158 100.606 298.314 100.606H283.002C281.741 100.606 280.578 100.398 279.539 100.015C278.323 100.398 277.063 100.606 275.802 100.606H253.01C248.972 100.606 245.937 98.4748 244.773 95.3042C238.258 99.6148 230.798 101.978 223.267 101.978C219.635 101.978 216.037 101.44 212.817 100.212Z" fill="#FA966D"/>
<path fill-rule="evenodd" clip-rule="evenodd" d="M51.2822 99.3764C49.5767 100.161 47.7367 100.606 45.8927 100.606H30.5807C24.537 100.606 20.7397 95.8319 22.0993 89.9431L32.4128 45.2702C32.7531 43.7963 33.3842 42.3923 34.2339 41.1154C33.4505 38.4717 33.3579 35.4589 34.1017 32.2371C36.566 21.5633 47.4734 13 58.374 13C69.1334 13 76.3475 21.4275 73.8519 32.2371C73.666 33.0422 73.4342 33.8331 73.1599 34.6076H112.525C118.569 34.6076 122.366 39.3814 121.006 45.2702L110.693 89.9431C109.333 95.8319 103.332 100.606 97.2881 100.606H81.9761C80.0615 100.606 78.3723 100.127 77.0011 99.2847C75.2412 100.127 73.3307 100.606 71.4161 100.606H56.1041C54.2601 100.606 52.6253 100.161 51.2822 99.3764ZM157.628 100.205C158.516 100.466 159.484 100.606 160.518 100.606H174.51C180.554 100.606 186.555 95.8319 187.915 89.9431L198.228 45.2702C199.588 39.3814 195.791 34.6076 189.747 34.6076H175.755C174.856 34.6076 173.957 34.7133 173.075 34.9126C170.021 33.7694 166.565 33.2357 162.96 33.2357C143.455 33.2357 126.182 48.3196 121.72 67.6495C119.582 76.908 120.607 85.488 125.036 91.8862C129.516 98.3573 137.08 101.978 146.385 101.978C150.076 101.978 153.904 101.414 157.628 100.205ZM221.817 100.212C220.817 100.468 219.793 100.606 218.768 100.606H204.776C198.732 100.606 194.935 95.8319 196.294 89.9431L211.141 25.6347C212.501 19.7459 218.502 14.9721 224.546 14.9721H239.682C245.726 14.9721 249.523 19.7459 248.163 25.6347L246.402 33.2634C246.868 33.2448 247.33 33.2357 247.785 33.2357C255.015 33.2357 260.94 35.326 265.304 38.9398L268.376 25.6347C269.735 19.7459 275.737 14.9721 281.78 14.9721H297.092C300.379 14.9721 303.002 16.3841 304.491 18.6195C308.89 15.1423 314.344 13 319.796 13C330.555 13 337.769 21.4275 335.274 32.2371C335.088 33.0422 334.856 33.8331 334.582 34.6076H373.21L375.282 25.6347C376.641 19.7459 382.643 14.9721 388.687 14.9721H403.998C410.042 14.9721 413.839 19.7459 412.48 25.6347L410.408 34.6078C410.427 34.6077 410.446 34.6076 410.465 34.6076H424.985C430.607 34.6076 434.356 38.7585 433.657 44.2092C433.4 46.2152 433.153 47.7744 432.543 50.4149C431.065 56.8156 427.814 64.9182 421.322 71.6877L425.926 84.6573C427.098 87.9575 426.146 92.0109 423.43 95.2971C420.713 98.5833 416.64 100.606 412.74 100.606H395.668C393.612 100.606 391.77 100.044 390.313 99.034C388.418 100.031 386.326 100.606 384.228 100.606H368.916C367.073 100.606 365.439 100.162 364.097 99.3777C362.392 100.162 360.553 100.606 358.71 100.606H343.398C341.483 100.606 339.794 100.127 338.423 99.2847C336.663 100.127 334.752 100.606 332.838 100.606H317.526C315.682 100.606 314.047 100.161 312.704 99.3764C310.998 100.161 309.158 100.606 307.314 100.606H292.002C290.741 100.606 289.578 100.398 288.539 100.015C287.323 100.398 286.063 100.606 284.802 100.606H262.01C257.972 100.606 254.937 98.4748 253.773 95.3042C247.258 99.6148 239.798 101.978 232.267 101.978C228.635 101.978 225.037 101.44 221.817 100.212Z" fill="white"/>
<path d="M51.9454 42.5449C56.8734 42.5449 61.7924 38.7722 62.9208 33.8847C64.0096 29.1688 60.8524 25.3103 55.9244 25.3103C50.9964 25.3103 46.1456 29.1688 45.0568 33.8847C43.9285 38.7722 47.0174 42.5449 51.9454 42.5449ZM48.3663 91.5908L58.6799 46.9179H43.3679L33.0543 91.5908H48.3663ZM68.8913 46.9179L58.5777 91.5908H73.8897L81.2537 59.6938H91.8137L84.4497 91.5908H99.7617L110.075 46.9179H68.8913ZM132.675 69.2972C129.428 83.3593 136.275 92.9627 148.859 92.9627C154.843 92.9627 160.158 90.9048 163.806 87.3036H164.158C163.931 87.9038 163.645 88.7612 163.368 89.9616L162.992 91.5908H176.984L187.297 46.9179H173.305L172.969 48.3755C172.652 49.7475 172.601 50.3477 172.59 50.7764H172.238C170.439 47.5181 166.406 45.546 160.51 45.546C147.75 45.546 135.941 55.1494 132.675 69.2972ZM155.32 79.8438C149.688 79.8438 146.63 75.5566 148.134 69.04C149.599 62.6949 154.617 58.4934 160.249 58.4934C165.969 58.4934 169.135 62.6949 167.67 69.04C166.166 75.5566 161.04 79.8438 155.32 79.8438ZM261.872 69.2115C265.138 55.0636 257.92 45.546 245.336 45.546C240.056 45.546 235.172 47.2609 232.143 50.0904H231.791C231.958 49.7475 232.184 49.1472 232.739 46.7464L237.232 27.2824H222.096L207.25 91.5908H221.242L221.519 90.3904C221.816 89.1042 221.965 88.0753 222.036 87.3893H222.476C224.528 91.0763 228.933 92.9627 234.741 92.9627C247.413 92.9627 258.626 83.2736 261.872 69.2115ZM234.338 79.8438C228.706 79.8438 225.559 75.5566 227.064 69.04C228.548 62.6091 233.635 58.4934 239.267 58.4934C245.075 58.4934 248.084 62.6091 246.6 69.04C245.095 75.5566 240.146 79.8438 234.338 79.8438ZM264.484 91.5908H287.276L290.265 78.6434H282.785L294.643 27.2824H279.331L264.484 91.5908ZM313.367 42.5449C318.295 42.5449 323.214 38.7722 324.343 33.8847C325.431 29.1688 322.274 25.3103 317.346 25.3103C312.418 25.3103 307.567 29.1688 306.479 33.8847C305.35 38.7722 308.439 42.5449 313.367 42.5449ZM309.788 91.5908L320.102 46.9179H304.79L294.476 91.5908H309.788ZM330.313 46.9179L319.999 91.5908H335.311L342.675 59.6938H353.235L345.871 91.5908H361.183L371.497 46.9179H330.313ZM371.39 91.5908H386.702L390.424 75.4708C390.932 75.5566 391.548 75.5566 391.9 75.5566C392.34 75.5566 392.692 75.5566 393.132 75.5566L398.142 91.5908H415.214L408.122 71.6123C415.928 67.1536 419.929 59.3508 421.612 52.0626C422.127 49.8332 422.316 48.6328 422.536 46.9179H408.016C407.51 49.4902 407.252 50.6049 406.975 51.8053C405.253 59.2651 400.578 63.1236 394.858 63.1236C394.33 63.1236 393.714 63.1236 393.294 63.0379L401.549 27.2824H386.237L371.39 91.5908Z" fill="black"/>
<path fill-rule="evenodd" clip-rule="evenodd" d="M479.824 177.341C478.383 174.64 478.555 171.147 480.289 167.92L514.848 103.611C517.275 99.0948 522.253 96 527.091 96H547.419C552.256 96 555.805 99.0948 556.147 103.611L557.402 120.2L560.527 106.663C561.887 100.774 567.888 96 573.932 96H589.42C595.464 96 599.261 100.774 597.902 106.663L583.055 170.971C581.695 176.86 575.694 181.634 569.65 181.634H554.162C552.973 181.634 551.871 181.449 550.878 181.107C549.715 181.452 548.529 181.634 547.361 181.634H530.553C525.577 181.634 521.983 178.363 521.805 173.674L521.634 169.201H518.284L516.048 173.674C513.704 178.363 508.6 181.634 503.625 181.634H487.609C484.152 181.634 481.266 180.042 479.824 177.341Z" fill="#FFCB2F"/>
<path fill-rule="evenodd" clip-rule="evenodd" d="M493.16 177.341C491.718 174.64 491.891 171.147 493.625 167.92L528.184 103.611C530.611 99.0948 535.589 96 540.427 96H560.755C565.592 96 569.141 99.0948 569.483 103.611L570.738 120.2L573.863 106.663C575.223 100.774 581.224 96 587.268 96H602.756C608.8 96 612.597 100.774 611.237 106.663L596.391 170.971C595.031 176.86 589.03 181.634 582.986 181.634H567.498C566.309 181.634 565.207 181.449 564.214 181.107C563.051 181.452 561.864 181.634 560.697 181.634H543.889C538.913 181.634 535.319 178.363 535.141 173.674L534.97 169.201H531.62L529.384 173.674C527.04 178.363 521.936 181.634 516.961 181.634H500.945C497.488 181.634 494.602 180.042 493.16 177.341Z" fill="#FA966D"/>
<path fill-rule="evenodd" clip-rule="evenodd" d="M506.494 177.341C505.052 174.64 505.225 171.147 506.959 167.92L541.518 103.611C543.945 99.0948 548.923 96 553.761 96H574.089C578.926 96 582.475 99.0948 582.817 103.611L584.072 120.2L587.197 106.663C588.557 100.774 594.558 96 600.602 96H616.09C622.134 96 625.931 100.774 624.571 106.663L609.725 170.971C608.365 176.86 602.364 181.634 596.32 181.634H580.832C579.643 181.634 578.541 181.449 577.548 181.107C576.385 181.452 575.198 181.634 574.031 181.634H557.223C552.247 181.634 548.653 178.363 548.475 173.674L548.304 169.201H544.954L542.718 173.674C540.374 178.363 535.27 181.634 530.295 181.634H514.279C510.822 181.634 507.936 180.042 506.494 177.341Z" fill="white"/>
<path d="M166.912 171.962C181.344 171.962 193.917 162.101 197.104 148.296C200.311 134.405 192.291 124.545 177.859 124.545C163.427 124.545 150.855 134.405 147.648 148.296C144.461 162.101 152.48 171.962 166.912 171.962ZM169.941 158.843C164.221 158.843 161.515 154.555 163.019 148.039C164.484 141.694 169.15 137.492 174.87 137.492C180.59 137.492 183.316 141.694 181.851 148.039C180.347 154.555 175.661 158.843 169.941 158.843Z" fill="black"/>
<path d="M204.797 138.693H208.581L201.218 170.59H216.529L223.893 138.693H232.781L235.731 125.917H226.843L228.506 118.714H237.394L240.264 106.281H216.064L211.531 125.917H207.747L204.797 138.693Z" fill="black"/>
<path d="M253.439 148.296C250.192 162.358 257.039 171.962 269.623 171.962C275.607 171.962 280.922 169.904 284.57 166.302H284.922C284.695 166.903 284.409 167.76 284.132 168.961L283.756 170.59H297.748L308.061 125.917H294.069L293.733 127.374C293.416 128.746 293.366 129.347 293.355 129.775H293.003C291.203 126.517 287.17 124.545 281.274 124.545C268.514 124.545 256.705 134.148 253.439 148.296ZM276.084 158.843C270.452 158.843 267.394 154.555 268.898 148.039C270.363 141.694 275.381 137.492 281.013 137.492C286.733 137.492 289.899 141.694 288.434 148.039C286.93 154.555 281.804 158.843 276.084 158.843Z" fill="black"/>
<path d="M318.304 125.917L307.99 170.59H323.302L330.666 138.693H341.226L333.862 170.59H349.174L359.488 125.917H318.304Z" fill="black"/>
<path fill-rule="evenodd" clip-rule="evenodd" d="M180.116 176.79C172.693 181.978 163.737 185.006 154.451 185.006C134.16 185.006 122.118 170.549 126.706 150.677C131.307 130.746 150.003 116.264 170.322 116.264C178.321 116.264 185.033 118.508 189.949 122.447C190.696 121.622 191.539 120.877 192.451 120.234L195.122 108.663C196.482 102.774 202.483 98 208.527 98H232.727C238.771 98 242.568 102.774 241.208 108.663L238.338 121.096C238.046 122.359 237.541 123.572 236.867 124.697C237.021 125.822 236.967 127.034 236.675 128.298L233.725 141.074C232.524 146.278 227.697 150.612 222.419 151.549L217.474 172.971C216.114 178.86 210.112 183.634 204.069 183.634H188.757C184.094 183.634 180.769 180.792 180.116 176.79ZM268.405 183.233C264.682 184.442 260.854 185.006 257.163 185.006C247.857 185.006 240.293 181.385 235.813 174.914C231.384 168.516 230.359 159.936 232.497 150.677C236.959 131.348 254.232 116.264 273.737 116.264C277.342 116.264 280.798 116.797 283.852 117.94C284.735 117.741 285.633 117.635 286.532 117.635H300.524C302.374 117.635 304.014 118.083 305.36 118.873C307.07 118.083 308.916 117.635 310.766 117.635H351.95C357.994 117.635 361.791 122.409 360.432 128.298L350.118 172.971C348.759 178.86 342.757 183.634 336.714 183.634H321.402C319.487 183.634 317.798 183.154 316.427 182.313C314.667 183.154 312.756 183.634 310.842 183.634H295.53C293.679 183.634 292.04 183.186 290.694 182.396C288.984 183.186 287.137 183.634 285.287 183.634H271.295C270.261 183.634 269.293 183.494 268.405 183.233Z" fill="white"/>
<path d="M156.914 173.963C171.346 173.963 183.918 164.102 187.105 150.297C190.312 136.407 182.293 126.546 167.861 126.546C153.429 126.546 140.856 136.407 137.649 150.297C134.462 164.102 142.482 173.963 156.914 173.963ZM159.942 160.844C154.222 160.844 151.516 156.557 153.021 150.04C154.485 143.695 159.151 139.493 164.871 139.493C170.591 139.493 173.317 143.695 171.853 150.04C170.348 156.557 165.662 160.844 159.942 160.844ZM194.799 140.694H198.583L191.219 172.591H206.531L213.895 140.694H222.783L225.732 127.918H216.844L218.507 120.715H227.395L230.266 108.282H206.066L201.532 127.918H197.748L194.799 140.694ZM243.44 150.297C240.194 164.359 247.041 173.963 259.625 173.963C265.609 173.963 270.924 171.905 274.571 168.304H274.923C274.697 168.904 274.411 169.761 274.133 170.962L273.757 172.591H287.749L298.063 127.918H284.071L283.734 129.376C283.418 130.747 283.367 131.348 283.356 131.776H283.004C281.204 128.518 277.172 126.546 271.276 126.546C258.516 126.546 246.707 136.149 243.44 150.297ZM266.085 160.844C260.453 160.844 257.395 156.557 258.9 150.04C260.365 143.695 265.383 139.493 271.015 139.493C276.735 139.493 279.901 143.695 278.436 150.04C276.931 156.557 271.805 160.844 266.085 160.844ZM308.305 127.918L297.992 172.591H313.304L320.668 140.694H331.228L323.864 172.591H339.176L349.489 127.918H308.305Z" fill="black"/>
<path d="M517.742 170.591H533.758L539.973 158.158H560.213L560.686 170.591H577.494L572.629 106.282H552.301L517.742 170.591ZM558.576 121.03H558.928L559.809 145.039H546.521L558.576 121.03ZM584.296 170.591H599.784L614.63 106.282H599.142L584.296 170.591Z" fill="black"/>
</svg>
