<svg xmlns="http://www.w3.org/2000/svg" width="125" height="132" fill="none"><path fill="#F2BA05" d="M40.76 104.525v17.761h16.232v-3.239l-4.01-.955V113.7h-3.629l-1.337 1.05v2.769h-2.1v-4.488l.955-1.146v-7.36l1.145-.858h17.665l1.337.858-.764 17.761H84.11v-4.194h-4.297V113.7h-5.634v3.819H72.46v-13.852l10.313-.566.477-9.554h9.644V87.06h5.825l-.764-25.208h17.569v-5.633l-5.824-.544-.128-5.09h-5.22l-.859-4.297h-5.538V30.914h-6.97v-5.156H85.35l-.668-6.111h-5.825V9.621h-5.634v10.026H70.17V15.16h-5.73l-1.432 13.272h-6.683L54.796 39.22H50.88l-.764 10.505h-7.543V39.22h-5.92l.859-14.13-7.448-1.432-.573-8.498h-5.824l-.764 8.498-6.875.667-1.06 10.979h5.834l-.668 3.916h-5.539l-3.914 38.384h5.347v6.683h8.212v9.26h9.166v10.12l7.352.858Z"/><path fill="#301E23" d="M94.311 24.698c-.115.032-.23.06-.346.087.008-.215.02-.43.028-.644.107.187.21.374.318.56v-.003Z"/><path fill="#817B79" d="m101.563 32.864-.012-.032.155.048c-.048-.004-.096-.012-.143-.016Z"/><path fill="#4B4241" d="M50.86 125.957c.186 0 .373 0 .565.004-.188 0-.375 0-.566-.004Z"/><path fill="#322829" d="M15.202 20.645c-.302.02-.605.035-.903.055ZM30.657 107.082l.072.092-.092-.076.02-.016Z"/><path fill="#FCD901" d="M24.659 25.093c-.462-.505-.92-1.015-1.382-1.52.124-2.774.251-5.548.374-8.319l6.086-.445v8.728c-.1.92-.195 1.839-.294 2.759-1.596-.402-3.192-.8-4.789-1.203h.005Z"/><path fill="#8E8583" d="M40.614 34.672a.338.338 0 0 1 .004.37 1.636 1.636 0 0 1-.004-.37Z"/><path fill="#4B4241" d="m43.07 35.942.235-.012c-.08.008-.155.012-.235.012Z"/><path fill="#EE8D00" d="M73.247 103.809c-.318.151-.429 1.044-.747 1.191-1.78.119-3.762-.499-5.541-.379-.47-.327-.94-.936-1.41-.94a688.767 688.767 0 0 0-17.37.116c-.46.008-.5.836-.953 1.242-1.938-.215-4.566-.242-6.504-.461-.585-.207-1.219-.24-1.808-.26-1.807-.059-3.284-.573-5.09-.549l-.466-.112c-.128-.701 0-1.289 0-1.989 0-2.703.075-5.41.123-8.112.12 1.863.235 3.725.354 5.588.148.235.295.474.438.709h5.493c.426-.004.852-.012 1.277-.016h5.88c.556 0 1.118-.004 1.675-.008 2.093 0 4.187 0 6.28-.004.566 0 1.131-.004 1.696-.008l7.861.036 1.254.035h6.332c.418-.012.836-.023 1.254-.032 2.496 0 4.991.009 7.487.009.346-.152.983-.291.991-.454.096-2.305 1.039-4.641-.06-7.089H68.065l-4.776-.012c-1.194 0-2.388.004-3.582.008-1.593 0-3.185-.008-4.777-.012h-3.582c-1.457 0-2.917.004-4.374.008h-3.188c-2.918.024-5.835.048-8.753.068-.525.378-1.05.752-1.58 1.126l-9.103.012-.043-.04c0-.9 0-1.803.004-2.702.254-.008.51-.012.764-.02.53.008 1.063.016 1.592.028h1.198c.53-.012 1.059-.024 1.584-.032l.764-.788c.008-.263.02-.526.028-.788l.442-2.349c.394-.035.788-.071 1.182-.103h3.515v-3.893l.047-.402c.255-.052.506-.1.76-.151.407-.088.817-.171 1.223-.259l1.202-.8.023-1.198c0-.525 0-1.05.004-1.576.22-.593.434-1.186.61-1.656l2.953-.314c1.054 0 2.105-.008 3.16-.012.808.012 1.612.024 2.42.032h5.536l2.042.234 18.198-.238v5.174l1.687.31c.657.016 1.314.032 1.974.044.275.116.546.235.82.35.036.136.068.275.104.41-.004.422-.008.84-.016 1.262-.02.784-.04 1.568-.056 2.348.116.128.231.255.347.379l4.76.047v4.12h7.117v-4.57c.02-1.05.043-2.1.063-3.152.553-.052 1.103-.1 1.656-.151 1.958-.072 3.913-.14 5.87-.21.136.246.271.497.403.743l.223 3.396h-5.72v6.738h-9.196c0 3.13-.526 6.27-.734 9.393-.849.475-1.432.518-2.412.542-.711-.711-6.077.119-7.2.143Z"/><path fill="#E70A04" d="M109.799 55.587c1.819.1 3.939.414 5.914.521v5.995c-.964.056-2.113-.01-2.953-.01-3.976.003-7.956-.04-11.933-.005-.828.008-1.643-.01-2.47.142-5.06-.048-10.118-.092-15.177-.136-.144-2.113-.283-4.23-.426-6.344.016-1.843.036-3.682.052-5.524 1.325-.14 2.647-.283 3.972-.422.92-.016 1.843-.036 2.762-.052h1.604c.8-.004 1.596-.008 2.396-.016h4.08c.143-1.274.267-2.36.386-3.45h5.732c.21 1.48.394 2.745.585 4.087h5.261c.056 1.795.083 3.64.131 5.299-1.919-.223-3.816-.634-5.735-.861a270.2 270.2 0 0 0-.107-1.059c-.426-.279-.852-.788-1.282-.792-2.754-.032-5.504.052-8.259.096l-2.798.023H87.88c0 1.845-.088 2.921-.088 4.562.255 0 1.505 0 1.76.004 1.85-.008 3.706-.016 5.556-.028 1.736-.012 3.471-.02 5.207-.032h9.325c.064-.84.112-1.421.155-2.006l.004.008Z"/><path fill="#EE8D00" d="M103.984 54.813c1.919.222 5.719.867 5.719.867h.104s-.131 1.548-.159 1.91l-1.643-.785-2.219-1.125-1.798-.864-.004-.004Z"/><path fill="#F2BA05" d="M95.537 45.036c.804-.012 1.608-.02 2.412-.032.02.43.036.856.056 1.285-.123 1.091-.247 2.178-.386 3.451h-4.08c1.612-.672 3.2-1.365 3.49-3.32-.576-.532-1.034-.958-1.496-1.384h.004Z"/><path fill="#4B4241" d="M82.92 101.421c.012-1.66.024-3.316.04-4.976-.012 1.66-.024 3.316-.04 4.976ZM82.852 103.123l.047-.717.18.657a.952.952 0 0 1-.227.06Z"/><path fill="#EE8D00" d="M79.811 118.086h4.281v4.197h-2.057c-4.625.024-8.316.036-12.937.012h-2.844l.154-3.709.132-.072s4.516-.851 5.901-1.018h1s4.294.038 6.054.074l.316.516ZM53.25 117.899c1.357.259 2.71.517 4.064.772-.02 1.15-.036 2.305-.056 3.459l-.032.028c-5.52 0-11.041 0-16.566.004l-.015-.016c.02-1.449.04-2.894.063-4.343.211-.043.418-.091.63-.135l4.473.155c.804.032 1.612.06 2.416.092 1.672-.008 3.347-.012 5.019-.016h.004ZM20.709 84.578c-.414.008-.824.02-1.234.028l-3.1-.06a.395.395 0 0 0-.287-.254l.084-3.718c.179.347.358.689.54 1.035 2.134.016 4.264.028 6.397.044.298.063.593.127.808.175.143.545.255.96.366 1.377-.008.41-.012.816-.02 1.226l-3.55.143-.004.004Z"/><path fill="#FDDC00" d="M79.498 117.561c-1.759-.035-3.575-.006-5.334-.041-.052-1.039.015-3.81.015-3.81.1-.079.211.012.338 0h.191c.386-.119.773.12 1.159 0h.051l3.576.066v3.789l.004-.004ZM48.236 116.366c.012-.581.02-1.166.032-1.747 1.656-.164 3.316-.331 4.971-.494.02 1.11.044 2.217.064 3.327l-5.067-1.086Z"/><path fill="#2D1D16" d="M7.557 79.62v-.386c.027.088.063.175.075.263.004.036-.047.08-.075.124Z"/><path fill="#8E8583" d="m92.724 22.294-.39-.036.39.036Z"/><path fill="#FCD901" d="M14.352 40.212c1.807-.143 3.614-.29 5.998-.482-.394 3.495-.732 6.492-1.074 9.56-.605.272-1.174.526-1.939.865l1.827.987c-.127 1.317-.254 2.635-.374 3.845-1.476.35-2.575.613-3.673.875l.031.45 2.962.47v3.749c-1.787.135-3.582.267-5.378.402l.132-7.542.239-1.644c.338-.53.676-1.055 1.086-1.696-.394-.135-.625-.215-.856-.29.339-3.185.681-6.365 1.02-9.549Z"/><path fill="#E70A04" d="M36.668 39.215c-5.469-.016-11.07.016-16.535.004l.664-3.913c5.397-.016 10.71.194 16.107.182 0 1.317-.236 3.727-.236 3.727Z"/><path fill="#FCD901" d="m12.73 61.309 5.178.477c-.16 1.27-.326 2.64-.498 4.02-1.034.203-1.826.358-2.619.518l-.015.302c.648.171 1.297.346 2.523.673l-.991 4.768-4.315-.394-.418-.454c-.02-.242-.035-.49-.055-.732-.016-.728-.036-1.46-.052-2.19-.072-.079-.068-.15.02-.214.299-.458.597-.92.904-1.393-.271-.378-.486-.677-.705-.975.04-.398.076-.792.115-1.19.31-1.071.617-2.142.928-3.212v-.004ZM21.087 24.188c1.254 1.504.86 3.16.506 5.062h-5.385c-.446-1.735-.581-3.423.501-5.027l4.378-.035Z"/><path fill="#F2BA05" d="M12.73 61.311c-.31 1.07-.617 2.142-.927 3.212l1.062-11.132a4547.79 4547.79 0 0 1-.135 7.542v.378ZM13.33 49.758c.231.08.462.155.856.29L13.1 51.744l.226-1.99.005.004ZM11.687 65.715c.215.298.43.6.705.975-.307.474-.605.935-.904 1.393.068-.792.136-1.58.2-2.372v.004ZM11.467 68.305c.016.728.036 1.46.052 2.189-.095 0-.191-.008-.29-.016.08-.724.159-1.449.234-2.177l.004.004Z"/><path fill="#FCD901" d="M30.89 25.273h6.142c-.167 1.338.092 2.818-.521 3.463-1.425 1.489-3.455 1.254-5.616.951v-4.414h-.004ZM36.451 30.387v4.135c-2.133.136-4.155.267-6.408.41V30.86c2.07-.15 4.064-.298 6.408-.473Z"/><path fill="#FDDC00" d="M24.656 25.094c1.597.402 3.193.8 4.789 1.202-.207 1.023-.418 2.046-.677 3.323h-5.803c1.11-1.56-1.17-3.741 1.695-4.525h-.004Z"/><path fill="#FCD901" d="M28.917 30.926c0 1.574.315 2.989-.417 3.594-1.512 1.246-4.152.708-6.055 0v-3.59h6.472v-.004Z"/><path fill="#FDDC00" d="M15.523 30.828h6.158c-.362 1.357-.327 3.001-1 3.371-1.309.725-3.012.737-4.95 1.123-.084-1.78-.136-2.977-.208-4.494Z"/><path fill="#301E23" d="M37.762 27.648c-.072.593-.144 1.186-.211 1.78.071-.594.143-1.187.21-1.78Z"/><path fill="#FCD901" d="M55.725 40.613c-.315 4.76-.625 9.517-.955 14.504h-4.836c.024-1.548-1.051-3.18 1.019-4.175l2.324-.143a29.898 29.898 0 0 1-.044-.59h-2.276l-.422-.433-.167-3.129c.027-.278.06-.557.087-.836.39-.326.776-.656.931-.784a3387.03 3387.03 0 0 0-.688-3.59l.072-.796 4.959-.024-.004-.004ZM42.183 47.79c-.227.541-.45 1.083-.72 1.736-.486.143-1.039.302-1.843.537 2.038 1.35 2.205 3.017 1.07 5.063h-5.643l.406-3.666 1.632-1.266c-.438-.37-.816-.688-1.338-1.122.215-1.127.43-2.261.697-3.65h5.819c-.028.788-.056 1.58-.08 2.368ZM42.506 42.638c-.207.55-.41 1.102-.673 1.803h-4.748c-1.206-3.296-.335-4.573 2.989-4.581.792 0 1.584-.016 2.376-.024.02.931.04 1.867.056 2.798v.004Z"/><path fill="#2D1D16" d="M63.468 23.172c-.1 1.035-.199 2.07-.294 3.108.1-1.034.199-2.07.294-3.108Z"/><path fill="#FCD901" d="M92.002 83.062V63.503c1.723-.175 3.618-.37 5.87-.6v19.944c-1.957.072-3.916.14-5.87.211v.004ZM64.431 99.859l-7.86-.036c.218-2.285.441-4.573.636-6.607 1.162-.418 1.827-.657 2.488-.892 1.194 0 2.388-.004 3.582-.008.402.816 1.063 1.608 1.15 2.456.171 1.68.02 3.387.004 5.087ZM80.758 99.87c-2.495 0-4.99-.008-7.486-.008l.851-6.885h6.635v6.893ZM51.34 92.305h3.582c.374.346.748.688 1.059.979-.386 2.276-.744 4.406-1.103 6.54-2.093 0-4.187 0-6.28.003.12-2.276.239-4.553.346-6.663 1.059-.382 1.727-.62 2.396-.86ZM72.018 99.89h-6.332c.222-2.216.441-4.433.656-6.563.705-.414 1.21-.708 1.716-1.007h3.984l-.024 7.567v.004ZM33.831 99.145c-.12-1.863-.235-3.725-.354-5.588l-.028-.04c.526-.378 1.051-.752 1.58-1.13 1.652.219 3.3.438 5.234.692-.195 1.254-.362 2.317-.525 3.384.092.007.183.02.275.027-.08 1.119-.164 2.241-.243 3.36h-5.493a66.915 66.915 0 0 1-.438-.709l-.008.004ZM43.78 92.32h3.188l-.048 7.523H41.04c.267-2.237.533-4.474.788-6.631.788-.358 1.37-.621 1.946-.888l.004-.004Z"/><path fill="#F5C201" d="m83.172 86.82 7.117-.453v4.57h-7.117v-4.12.004Z"/><path fill="#FCD901" d="M35.425 82.427c-1.011-.231-2.022-.466-3.51-.808.107-1.318.218-2.699.325-4.072 2.552-.414 4.621-.776 6.397.895 0 .526 0 1.051-.004 1.577l-.024 1.198c-.402.266-.8.533-1.202.8-.406.087-.816.17-1.222.258-.255.052-.506.1-.76.152ZM40.71 117.805c.071-3.634-.397-7.094-.326-10.728.016-.859.332-1.663.356-2.518 1.938.215 4.137.202 6.075.417.056 2.237.187 4.482.115 6.715-.016.533-.696 1.047-1.07 1.568l-.072-.621c.135-1.492.267-2.985.41-4.565h-4.517l-.26 4.549c-.027 1.684-.059 3.368-.087 5.047-.21.044-.418.092-.629.136h.004ZM47.777 76.497c-.223-1.182-.45-2.368-.728-3.84h6.683c-.148 1.349-.283 2.59-.422 3.836-1.847 0-3.69 0-5.537.004h.004ZM42.2 76.48c-.674-.235-1.342-.474-2.202-.776v-2.985h5.787c.57 1.31.68 2.579-.426 3.75l-3.16.011ZM30.238 89.179c-.008.263-.02.525-.028.788l-.764.788c-.53.012-1.059.024-1.584.032h-1.198a211.33 211.33 0 0 1-1.592-.028c-.127-.927-.25-1.859-.406-3.005h4.796c.279.505.526.96.776 1.417v.008ZM31.861 86.729v-3.893h3.515v3.893H31.86Z"/><path fill="#F2BA05" d="M33.832 99.144c.147.235.295.474.438.709a66.928 66.928 0 0 1-.438-.709Z"/><path fill="#FCD901" fill-rule="evenodd" d="M81.05 56a.669.669 0 0 0-.443 0h.443Zm-2.255 0 .001-14.824L82.753 41c.765 2.175-.5 3.113-1.284 3.694-.757.562-1.066.79 1.336 1.48v4.049l-.026 2.762c-.01.92-.018 1.84-.026 2.762V56h.415c.072 1.057.036 2.062 0 3.067-.036 1.005-.072 2.01 0 3.066.996.282 1.994.563 3.061.862l1.353.38.762.93 1.992 2.425v16.518c-.01.526-.02 1.051-.032 1.576l-.032 1.576-7.116.454-4.76-.047-.347-.383v-.003c.02-.783.04-1.566.056-2.345l.008-.63.008-.632-.052-.205a12.271 12.271 0 0 0-.052-.205 49.016 49.016 0 0 1-.41-.175l-.41-.175c-.656-.016-1.313-.032-1.974-.044l-1.687-.32c-.183-.64 0-5.164 0-5.164l-18.194.238c-.047-.302-.11-.606-.172-.91-.138-.67-.276-1.341-.238-2.003.16-2.823.35-5.644.54-8.464.197-2.905.393-5.81.555-8.719.096-1.732.149-3.466.201-5.2.106-3.47.21-6.936.666-10.378H67V56h11.795ZM55.342 76.764h-.004l.004.004v-.004Z" clip-rule="evenodd"/><path fill="#F5C201" d="M95.539 45.031c.457.426.919.852 1.496 1.385-.29 1.959-1.882 2.647-3.49 3.32-.8.004-1.597.008-2.397.016v-3.157l1.175-1.568h3.22l-.004.004Z"/><path fill="#EE8D00" d="m91.534 53.078-2.743 1.055v3.506H87.68s.2-3.514.2-4.56h3.654ZM89.55 57.645c1.852-.008 3.706-.016 5.557-.028-1.855.008-3.705.016-5.556.028Z"/><path fill="#090503" d="M77.57 54.899h-9.406V40.996h9.393v13.91l.012-.007Z"/><path fill="#FCD901" d="m67.273 112.448.494-4.327h3.686v4.327h-4.184.004ZM16.71 81.612V77.47h6.77l-.379 4.187c-2.13-.016-4.262-.028-6.396-.044h.004ZM30.608 86.76h-5.497c-.274-.745-.497-1.342-.72-1.94a40.07 40.07 0 0 1-.131-.385c.008-.41.012-.816.02-1.226 1.938-.16 3.872-.315 6.328-.514v4.064Z"/><path fill="#4B4241" d="M78.951 18.995v-.12l.08.06-.084.056.004.004Z"/><path fill="#FDDC00" d="M28.036 40.379c-.283 1.83-.51 3.315-.736 4.796-.136-.02-.267-.04-.402-.056v4.462h-6.062c.155-1.433.29-2.647.426-3.893.816-.195 1.48-.354 2.686-.64-1.146-.355-1.783-.554-2.806-.872l.41-3.797h6.484Z"/><path fill="#FCD901" d="M24.703 81.801v-4.163c2.046-.163 3.889-.306 6.309-.497-.171 1.779-.303 3.12-.45 4.66h-5.859ZM29.037 44.41c.14-1.429.259-2.666.414-4.267 1.978-.123 3.69-.226 5.907-.362-.088 1.744-.16 3.097-.24 4.63h-6.08ZM42.974 50.57c1.86 0 3.722 0 5.58-.004v4.562h-5.782l.206-4.554-.004-.004Z"/><path fill="#FDDC00" d="M25.534 60.614h-6.007c.156-1.413.295-2.707.462-4.223h5.787c-.08 1.349-.147 2.575-.242 4.223ZM26.091 50.355v4.797h-5.87c.203-1.401-.028-3.427.664-3.817 1.385-.785 3.28-.677 5.206-.976v-.004ZM28.777 45.55h5.644v4h-6.15c.176-1.376.33-2.614.51-4h-.004Z"/><path fill="#FCD901" d="M47.135 65.735H41.01l.342-3.896c2.002-.196 3.761-.363 5.78-.558v4.458l.003-.004ZM47.772 71.055c.13-1.452.242-2.67.366-4.016l5.365-.645v4.661h-5.731ZM33.462 56.785c-.2 1.31-.37 2.428-.585 3.825h-5.56v-3.825h6.145ZM18.73 65.13l.598-3.247h5.544v3.984c-2.086.195-4.116.824-6.142-.736Z"/><path fill="#FDDC00" d="M33.613 51.188v3.94h-5.959c.124-1.405.227-2.567.35-3.94h5.609Z"/><path fill="#FCD901" d="M34.385 61.477h5.214v4.032c-1.78.175-3.539.346-5.843.573.25-1.827.442-3.224.629-4.61v.005ZM42.394 56.336h5.122v4.16h-5.803c.255-1.573.442-2.711.68-4.16Z"/><path fill="#FDDC00" d="M46.44 67.168v3.75l-5.665.286v-4.036h5.664Z"/><path fill="#FCD901" d="M34.732 56.695h5.66v3.606h-6.17c.18-1.261.335-2.368.506-3.606h.004Z"/><path fill="#FDDC00" d="M31.213 72.637v3.602h-6.125c.131-1.258.247-2.36.378-3.602h5.747ZM18.225 70.684c.226-1.349.406-2.408.609-3.614h5.763l-.191 3.614h-6.181ZM17.441 76.45l.554-3.79h5.476c.852 2.818.227 3.75-2.412 3.79-1.034.015-2.07 0-3.618 0Z"/><path fill="#FCD901" d="M32.487 61.945c-.147 1.254-.263 2.277-.43 3.702-1.62.167-3.236.338-5.202.541-.075-1.616-.127-2.806-.195-4.243h5.827Z"/><path fill="#FDDC00" d="M31.627 70.88h-5.875c.263-1.516.454-2.643.66-3.845h5.21v3.845h.005ZM32.838 72.637h5.544v3.634h-5.544v-3.634Z"/><path fill="#FCD901" d="M53.916 61.305v4.131h-5.365c.195-1.246.366-2.364.6-3.877l4.765-.25v-.004Z"/><path fill="#FDDC00" d="M33.08 70.672c.247-1.373.426-2.388.64-3.574h5.104v3.574H33.08ZM11.99 71.672l4.314.394v3.897c-4.128 1.178-4.868.418-4.733-4.24.14-.015.279-.035.414-.051h.004Z"/><path fill="#FCD901" d="M92.321 45.032c-.254-1.075-.696-2.146-.728-3.228-.092-2.938-.016-5.875.008-8.816 0-.319.095-.641.239-1.533l4.931-.322c.546 1.055.872 1.687 1.198 2.32 0 3.85-.008 7.702-.012 11.55-.804.013-1.608.025-2.412.033h-3.22l-.004-.004ZM86.782 49.8a818.53 818.53 0 0 0-3.049-.776c-.04-.863-.084-1.799-.135-2.993h6.372c-.155 1.37-.29 2.544-.422 3.718-.92.016-1.843.036-2.762.051h-.004ZM72.748 19.554v-9.84h6.213v6.867c0 .764-.004 1.532-.008 2.296v.12l-.183.51-6.022.047ZM78.8 29.896c-.577-2.2-.776-3.78 1.274-4.748-.466-.398-.84-.72-1.346-1.154.2-1.083.394-2.17.63-3.443h4.966c-.196 3.131-.238 5.922.223 9.043L78.8 29.9v-.004Z"/><path fill="#FDDC00" d="M83.423 30.5v3.845c-.888.275-1.628.501-2.591.8.847.334 1.472.585 2.38.943-.191 1.174-.37 2.297-.593 3.658h-5.545c.104-1.445.175-2.472.251-3.542.712-.24 1.313-.438 2.125-.713l-1.476-1.552c.055-1.031.115-2.122.187-3.435h5.262V30.5Z"/><path fill="#FCD901" d="M90.63 31.583c-.164.995-.3 1.835-.466 2.87h-5.027l.633-7.893c1.533-.282 2.897-.27 4.995-.27l-.669 3.94c-.219-.008-.438-.02-.653-.028.37.43.74.863 1.19 1.385l-.004-.004ZM69.244 39.83c0-.677.008-1.354.012-2.03 0-.24-.004-.474-.008-.713l.382-.852c2.138-.64 4.279-1.233 6.826-.19-.159 1.4-.31 2.71-.47 4.139-2.475.318-4.644 1.01-6.742-.354ZM71.272 20.053c1.515 0 4.396-.12 6.147 0v4.374L71 24.468c0-1 .022-3.001.272-4.415ZM70.156 24.729h-6.09c.136-1.485.263-2.854.434-4.729 1.974.243 3.998.23 5.652.73.004.5-.111 2.482 0 4.003l.004-.005Z"/><path fill="#FDDC00" d="M68.5 39.622h-6.191V35.78c2.191-.281 6.191 0 6.191 0v3.84Z"/><path fill="#FCD901" d="M64.346 14.762h6.145v4.732c-1.858-.187-4.54-.299-6.49-.494-.338-.932.168-3.27.345-4.238ZM70.737 30.637c2.046-.099 3.674-.179 5.178-.25 1.35 4.414.028 5.258-5.85 3.928.202-1.102.41-2.225.672-3.677Z"/><path fill="#FDDC00" d="M63.29 34.686c-.29-1.686.21-4.187.21-4.187s3.376-.454 5.175 0v4.187H63.29Z"/><path fill="#FCD901" d="M84.066 40.312C84.5 38.5 84.5 37 85 35.156c1.5.002 3 0 5.363.002-.123 1.902-.207 3.14-.298 4.557-1.97.195-3.606.358-5.999.597ZM89.73 44.873h-5.54v-3.63c1.54-.203 2.957-.49 4.382-.553 1.21-.052 1.803.756 1.7 1.934-.065.7-.327 1.385-.538 2.245l-.004.004ZM71.035 29.305v-3.59h6.126c-.076 1.206-.148 2.312-.231 3.59h-5.895ZM64.044 25.742h5.847c-.143 1.31-.259 2.337-.418 3.781h-5.791c.001-1.409-.056-2.552.362-3.78ZM61.408 34.673h-4.332c.424-2.173.424-2.673.74-5.325 1.059 0 2.995-.002 4.184.152 0 1.501-.5 3.501-.592 5.173ZM56.504 39.852c-.124-1.325-.243-2.65-.41-4.434h4.39c.163 1.325.322 2.65.541 4.434H56.5h.004Z"/><path fill="#FDDC00" d="m53.332 60.53-2.786.383c-.76-1.76-.26-3.312.796-4.772h1.592c.131 1.46.266 2.925.398 4.386v.004Z"/><path fill="#FCD901" d="M51.342 56.14c-1.054 1.461-1.556 3.01-.796 4.773-2.209-.98-.804-2.802-1.242-4.454l2.038-.318ZM53.332 60.527c-.132-1.46-.267-2.926-.398-4.386 1.17.008 1.66.684 1.568 1.759-.088.987.577 2.36-1.166 2.627h-.004Z"/><path fill="#F2BA05" d="M11.99 71.676c-.14.016-.279.032-.414.052v-.501c.14.15.279.302.418.453l-.004-.004Z"/><path fill="#FDDC00" d="M45.798 112.636c-1.457-.004-2.914-.012-4.366-.016l.258-4.55h4.518c-.14 1.576-.275 3.073-.41 4.566Z"/><path fill="#fff" fill-rule="evenodd" d="M31.759 131.286v-18.75l-7.353-.858v-9.131h-9.165v-9.26H7.029v-6.683H.717l4.807-47.133 2.26-23.389 6.824-.662.832-9.26h22.466l.672 9.97 8.398 1.614-.759 12.476h.763l1.528-10.788h6.418L56.358 6.16h7.866V.621h23.634v10.026h4.894l.668 6.11h6.564v5.157h6.971v15.373h3.916l.859 4.297h6.16l.556 5.895 6.078.651v22.721h-17.292l.763 25.208h-6.101v6.488H91.811l-.327 6.545h1.625v22.194H31.76Zm52.35-9v-4.194h-4.296V113.7h-5.634v3.819H72.46v-13.852l10.313-.566.477-9.554h9.644V87.06h5.825l-.764-25.208h17.569v-5.633l-5.347-.573-.478-5.061h-5.347l-.859-4.297h-5.538V30.914h-6.97v-5.156H85.35l-.669-6.111h-5.824V9.621h-5.634v10.026H70.17V15.16h-5.73l-1.432 13.272h-6.684L54.795 39.22h-3.914l-.764 10.505h-7.544V39.22h-5.92l.86-14.13-7.448-1.432-.573-8.498h-5.825l-.764 8.498-6.874.667-1.06 10.979h5.834l-.669 3.916h-5.538l-3.915 38.384h5.348v6.683h8.212v9.26h9.165v10.12l7.353.858v17.761h16.233v-3.239l-4.01-.955V113.7h-3.63l-1.336 1.05v2.769h-2.1v-4.488l.954-1.146v-7.36l1.146-.858h17.665l1.337.858-.764 17.761h17.855Z" clip-rule="evenodd"/><path fill="#000" fill-rule="evenodd" d="M36.758 126.286v-18.201l-7.352-.857v-9.68H20.24v-9.261h-8.212v-6.683H6.252l4.314-42.3h-.003l1.8-18.643 6.853-.665.794-8.836h13.22l.618 9.152 7.87 1.513-.815 13.395h5.67v8.08l.587-8.08h4.161l1.528-10.788h6.566l1.432-13.272h8.376V5.621h13.634v10.026h5.41l.67 6.11h6.047v5.157h6.97v15.373h4.817l.86 4.297h5.842l.136 5.438 5.914.551v13.278h-17.446l.764 25.208h-5.948v6.488h-9.839l-.467 9.35-10.127.556v2.247h7.352v4.392h4.297v12.194H62.077l.801-18.619H50.87v2.033h6.11v5.233l4.01.954v10.399H36.759Zm16.222-8.194V113.7h-3.628l-1.337 1.05v2.769h-2.1v-4.488l.955-1.146v-7.36l1.145-.858H65.68l1.337.858-.764 17.761h17.856v-4.194h-4.297V113.7h-5.634v3.819H72.46v-13.852l10.312-.566.477-9.554h9.644V87.06h5.825l-.764-25.208h17.569v-5.633l-5.824-.544-.128-5.09h-5.219l-.86-4.297h-5.538V30.914h-6.97v-5.156H85.35l-.668-6.111h-5.825V9.621h-5.634v10.026h-3.055V15.16h-5.73l-1.431 13.272h-6.684L54.794 39.22H50.88l-.764 10.505h-7.543V39.22h-5.92l.859-14.13-7.448-1.432-.573-8.498h-5.824l-.764 8.498-6.875.667-1.06 10.979h5.834l-.668 3.916h-5.539l-3.914 38.384h5.347v6.683h8.212v9.26h9.166v10.12l7.352.858v17.761h16.233v-3.239l-4.01-.955Z" clip-rule="evenodd"/></svg>