<svg width="128" height="128" viewBox="0 0 128 128" fill="none" xmlns="http://www.w3.org/2000/svg">
<path d="M24 0H104C110.366 0 116.469 2.52789 120.97 7.03C125.472 11.5307 128 17.6339 128 24V104C128 110.366 125.472 116.469 120.97 120.97C116.469 125.472 110.366 128 104 128H24C17.6343 128 11.5307 125.472 7.03001 120.97C2.52822 116.469 0 110.366 0 104V24C0 17.6343 2.5279 11.5307 7.03001 7.03C11.5307 2.52821 17.6339 0 24 0ZM112 104V24C112 21.8781 111.157 19.8439 109.658 18.3429C108.157 16.8431 106.123 16.0005 104.001 16.0005H24.0005C21.8786 16.0005 19.8444 16.8431 18.3434 18.3429C16.8437 19.844 16.001 21.878 16.001 24V100.679L62.6796 54H39.9996V37.9996H77.9996C81.1818 37.9996 84.2342 39.2636 86.4846 41.5153C88.7362 43.7656 90.0002 46.8181 90.0002 50.0003V88.0003H73.9999V65.3203L27.3213 111.999H104C106.122 111.999 108.156 111.156 109.657 109.656C111.157 108.155 112 106.122 112 104Z" fill="#1D222C"/>
</svg>
