<svg width="34" height="29" viewBox="0 0 34 29" fill="none" xmlns="http://www.w3.org/2000/svg">
<path d="M15.5054 11.6553H24.1094L15.2174 27.0273H18.8894L31.7054 4.92334H28.0334L25.7654 8.77534H13.8134L15.5054 11.6553ZM18.7454 12.6273L14.3894 20.0793L3.62538 1.53934L1.60938 4.41934L14.3534 26.4153L22.3454 12.6273H18.7454ZM12.0854 7.80334H24.5054L22.4894 4.92334H10.4294L8.19738 1.07134H4.52538L14.3894 18.0633L16.1894 14.9313L12.0854 7.80334ZM31.6694 3.95134L29.6894 1.07134H25.8734L27.8534 3.95134H31.6694ZM27.0254 4.52734L25.0814 1.68334L23.4254 4.52734L25.4054 7.37134L27.0254 4.52734Z" fill="white"/>
<path d="M8.80988 0.0999985H3.40988L0.421875 4.42L14.1019 28H19.5019L33.1819 4.384L30.2299 0.0999985H24.7939L22.5619 3.952H11.0419L8.80988 0.0999985ZM24.1099 11.656H15.5059L13.8139 8.776H25.7659L28.0339 4.924H31.7059L18.8899 27.028H15.2179L24.1099 11.656ZM14.3899 20.08L18.7459 12.628H22.3459L14.3539 26.416L1.60988 4.42L3.62588 1.54L14.3899 20.08ZM24.5059 7.804H12.0859L16.1899 14.932L14.3899 18.064L4.52588 1.072H8.19788L10.4299 4.924H22.4899L24.5059 7.804ZM29.6899 1.072L31.6699 3.952H27.8539L25.8739 1.072H29.6899ZM25.0819 1.684L27.0259 4.528L25.4059 7.372L23.4259 4.528L25.0819 1.684ZM17.5219 12.628L16.8019 13.888L16.0819 12.628H17.5219Z" fill="#111419"/>
</svg>
