<svg width="96" height="96" viewBox="0 0 96 96" fill="none" xmlns="http://www.w3.org/2000/svg">
<path fill-rule="evenodd" clip-rule="evenodd" d="M67.976 42.1127C68.6572 42.4003 69.3876 42.5526 70.1266 42.562L70.1263 42.5618C70.8662 42.5524 71.5966 42.4002 72.2768 42.1126C72.9627 41.8278 73.5946 41.4293 74.1441 40.9331C74.6424 40.3861 75.0441 39.7602 75.333 39.0807C75.9384 37.7218 75.9384 36.1729 75.333 34.8139C75.045 34.1344 74.6433 33.5084 74.1441 32.9615C73.0823 31.8985 71.6355 31.3008 70.1264 31.3008C68.6183 31.3008 67.1716 31.8985 66.1087 32.9615C65.6094 33.5075 65.2068 34.1344 64.9207 34.8139C64.3219 36.1747 64.3219 37.7207 64.9207 39.0807C65.4351 40.4915 66.5549 41.6024 67.976 42.1127ZM47.4904 42.5605C46.7505 42.5511 46.0201 42.3989 45.3398 42.1113C43.9178 41.6009 42.7989 40.4901 42.2845 39.0793C41.6857 37.7193 41.6857 36.1733 42.2845 34.8125C42.5706 34.133 42.9723 33.5061 43.4725 32.96C44.2682 32.1809 45.2791 31.6537 46.3762 31.4441C47.4742 31.2335 48.6101 31.351 49.6409 31.7815C50.3353 32.0484 50.9701 32.4487 51.5082 32.96C52.0075 33.507 52.4091 34.1329 52.6962 34.8124C53.3016 36.1714 53.3016 37.7203 52.6962 39.0792C52.4082 39.7587 52.0065 40.3847 51.5082 40.9317C50.9578 41.4279 50.3268 41.8264 49.6409 42.1111C48.9607 42.3987 48.2303 42.5511 47.4904 42.5605ZM24.8543 42.5625C24.1144 42.5531 23.384 42.4008 22.7038 42.1132C22.0179 41.8285 21.386 41.43 20.8365 40.9338C20.3372 40.3877 19.9356 39.7618 19.6476 39.0813C19.0498 37.7214 19.0498 36.1754 19.6476 34.8145C20.162 33.4048 21.2818 32.2938 22.7039 31.7835C24.0814 31.2215 25.6266 31.2215 27.0049 31.7835C27.6898 32.0673 28.3217 32.4667 28.8721 32.962C29.3705 33.509 29.7731 34.135 30.0601 34.8145C30.6655 36.1735 30.6655 37.7223 30.0601 39.0812C29.7721 39.7607 29.3704 40.3867 28.8721 40.9337C27.8035 41.9853 26.3577 42.571 24.8543 42.5625Z" fill="#111419"/>
<path fill-rule="evenodd" clip-rule="evenodd" d="M0 4C0 1.79086 1.79086 0 4 0H92C94.2091 0 96 1.79086 96 4V92C96 93.6017 95.0446 95.0489 93.5717 95.6783C92.0988 96.3076 90.3926 95.9977 89.2351 94.8906L68.395 74H4C1.79086 74 0 72.2091 0 70V4ZM8 8V66H71.605L88 82.6387V8H8Z" fill="#111419"/>
</svg>
