<svg xmlns="http://www.w3.org/2000/svg" width="398" height="64" fill="none"><path fill="#fff" d="M23.25 19.685V18.1c-1.477 1.224-3.133 1.584-4.86 1.584-3.745 0-7.093-2.664-7.093-7.308 0-4.752 3.816-7.488 7.992-7.488 3.996 0 7.308 2.7 7.308 7.596v7.2H23.25Zm-4.825.972c1.008 0 1.872-.108 2.628-.36l-2.844 2.556c-.54.108-1.26.18-2.52.18-4.5.036-8.712-4.464-8.712-10.188 0-7.812 5.688-11.772 12.312-11.772 6.804 0 11.628 4.32 11.628 9.9v5.292l-3.348 3.06v-6.84c0-5.616-3.996-8.568-8.28-8.568-5.148 0-8.964 3.492-8.964 8.496 0 4.932 3.42 8.244 8.1 8.244Zm-3.564 6.372c-6.372 0-12.168-5.724-12.168-13.392 0-7.884 5.58-11.988 11.232-12.6-4.32 1.62-7.92 5.328-7.92 11.808 0 6.552 4.824 11.16 9.684 11.16.936 0 1.692-.072 2.268-.144v2.88c-.9.216-1.8.288-3.096.288Zm8.388-14.724c0-2.844-1.872-4.536-4.248-4.536-2.592 0-4.356 2.124-4.356 4.536 0 2.52 1.908 4.5 4.14 4.5 2.7 0 4.464-2.124 4.464-4.5Zm-.972 8.244v2.52l-3.348 2.988v-2.52l3.348-2.988Zm-.828-5.904c-.612.72-1.548 1.188-2.7 1.188-1.512 0-3.132-1.404-3.132-3.528 0-1.512.936-2.988 2.448-3.42-.108.396-.144.864-.144 1.296 0 2.268 1.512 4.104 3.528 4.464ZM59.637 11.873l-8.352 8.424h11.628v2.88H46.461v-2.448l9.648-9.72c1.404-1.404 1.872-2.448 1.872-3.816 0-.792-.18-1.476-.432-2.052h.144c2.16 0 3.636 1.224 3.636 3.384 0 1.296-.468 2.124-1.692 3.348Zm-1.944-10.8c3.888 0 7.956 2.304 7.956 7.488 0 2.34-.828 3.888-2.916 6.048l-4.608 4.716h-4.464l6.192-6.228c1.944-1.944 2.448-3.024 2.448-4.536 0-2.736-1.944-4.392-4.608-4.392-2.844 0-4.788 1.728-5.436 4.248l-2.736-2.448c.972-2.628 3.78-4.896 8.172-4.896Zm-7.2 25.956-3.24-2.88h15.948l3.204 2.88H50.493ZM53.193 1c-2.412 1.044-3.96 2.88-4.608 4.716h-3.24C46.57 2.729 50.025 1.073 53.193 1Zm10.692 22.428v-2.52l3.348 2.988v2.52l-3.348-2.988ZM51.25 8.885h-2.808l-2.448-2.196h2.808l2.448 2.196ZM69.174 14.429c0-8.388 4.212-13.356 10.116-13.356 3.528 0 9.288 2.952 9.288 12.384 0 5.688-2.628 9.504-5.796 9.504a3.92 3.92 0 0 1-2.304-.756c3.132-.576 4.752-4.752 4.752-9 0-5.148-2.268-9.036-5.976-9.036-3.456 0-6.732 3.6-6.732 10.476 0 7.344 3.276 11.016 6.552 12.492-5.652-.036-9.9-5.112-9.9-12.708Zm13.644 12.6c-3.564 0-9.324-2.952-9.324-12.384 0-5.616 2.628-9.504 5.76-9.504.792 0 1.584.252 2.304.756-3.132.612-4.716 4.788-4.716 9 0 5.148 2.268 9.036 5.976 9.036 3.456 0 6.732-3.6 6.732-10.476 0-7.344-3.276-10.98-6.516-12.492 5.616.108 9.864 5.148 9.864 12.708 0 8.388-4.212 13.356-10.08 13.356ZM109.207 11.873l-8.352 8.424h11.628v2.88H96.031v-2.448l9.648-9.72c1.404-1.404 1.872-2.448 1.872-3.816 0-.792-.18-1.476-.432-2.052h.144c2.16 0 3.636 1.224 3.636 3.384 0 1.296-.468 2.124-1.692 3.348Zm-1.944-10.8c3.888 0 7.956 2.304 7.956 7.488 0 2.34-.828 3.888-2.916 6.048l-4.608 4.716h-4.464l6.192-6.228c1.944-1.944 2.448-3.024 2.448-4.536 0-2.736-1.944-4.392-4.608-4.392-2.844 0-4.788 1.728-5.436 4.248l-2.736-2.448c.972-2.628 3.78-4.896 8.172-4.896Zm-7.2 25.956-3.24-2.88h15.948l3.204 2.88h-15.912ZM102.763 1c-2.412 1.044-3.96 2.88-4.608 4.716h-3.24c1.224-2.988 4.68-4.644 7.848-4.716Zm10.692 22.428v-2.52l3.348 2.988v2.52l-3.348-2.988ZM100.819 8.885h-2.808l-2.448-2.196h2.808l2.448 2.196ZM130.755.965h.036c5.076 0 7.956 3.096 7.956 7.092 0 1.872-.792 3.672-2.304 4.968 2.16.972 3.564 3.456 3.564 6.336 0 5.508-4.284 7.668-8.46 7.668-4.716 0-7.812-2.304-8.928-4.932l2.808-2.484c.792 2.628 3.024 4.32 6.12 4.32 2.628 0 5.112-1.836 5.112-5.22 0-2.628-1.404-4.572-3.348-5.616 1.224-1.044 2.088-2.808 2.088-5.076 0-3.528-2.016-5.868-4.644-7.056Zm-4.14.108c3.78 0 7.812 2.196 7.812 6.948 0 2.52-1.044 4.176-3.204 5.364 2.808.468 4.464 2.844 4.464 5.328 0 2.592-1.692 4.248-4.14 4.248-.216 0-.432 0-.612-.036.972-.9 1.404-2.196 1.404-3.492 0-2.16-1.548-4.428-5.184-4.428h-1.08v-2.916h1.188c2.376 0 3.816-1.584 3.816-3.96 0-2.412-1.764-3.96-4.464-3.96-2.376 0-4.86 1.476-5.544 4.428l-2.664-2.376c.864-2.16 3.42-5.148 8.208-5.148Zm-8.1 21.312h3.204c.756 1.872 2.556 3.672 5.076 4.716-4.032 0-7.092-2.196-8.28-4.716Zm8.1-17.244c.288 0 .612.036.9.072-1.08.828-1.908 2.088-2.196 3.672h-3.312c.612-2.412 2.448-3.744 4.608-3.744Zm-2.268 14.076-2.448 2.196h-2.808l2.448-2.196h2.808ZM15.51 52.445h8.603l-8.892-15.372h3.672L31.71 59.177h-3.672l-2.268-3.852H13.817l1.692-2.88Zm3.24-.972-4.357-7.452L3.63 62.56l-2.016-2.88 12.744-21.996 7.992 13.788h-3.6Zm-6.66 4.824h12.42l-2.017 2.88h-12.06l-2.232 3.852H4.53l9.864-16.992 1.8 3.132-4.104 7.128Zm19.583 3.852-1.98 2.88h-3.816l1.98-2.88h3.816Zm-4.644-.576-1.944 2.844-1.656-2.844 1.98-2.844 1.62 2.844ZM43.674 39.953h-4.32v-2.88h11.988v2.88h-4.32v15.66l-3.348 2.952V39.953Zm-.972 20.196h4.32v2.88H35.034v-2.88h4.32V44.56l3.348-2.988v18.576Zm-7.668-19.476 3.348-2.988v2.52l-3.348 2.988v-2.52Zm16.308 18.756-3.348 2.988v-2.52l3.348-2.988v2.52ZM38.706 43.805h-2.88l3.204-2.88h2.916l-3.24 2.88Zm8.604 15.372h-2.844l3.204-2.88h2.844l-3.204 2.88Zm.684-15.984v-2.268h2.484l-2.484 2.268Zm-9.612 15.984h-2.484l2.484-2.268v2.268ZM72.146 63.029V41.537l3.348 3.024v5.976h12.888v2.88H75.494v9.612h-3.348Zm11.916-23.076H71.174v22.464l-3.348-2.988V37.073h16.236v2.88Zm-7.884 3.852-3.204-2.88H84.35l3.204 2.88H76.178Zm.288 2.88h7.92l3.132 2.88H76.466v-2.88Zm11.916-6.012v2.52l-3.348-2.988v-2.52l3.348 2.988ZM96.662 49.457c0-7.776 5.22-12.384 11.376-12.384 6.012 0 11.772 4.824 11.772 13.356 0 7.632-5.148 12.312-10.944 12.672 4.428-1.872 7.596-6.372 7.596-12.456 0-6.012-3.816-10.476-8.568-10.476-4.068 0-7.884 3.24-7.884 9.036 0 5.184 3.204 8.604 7.272 9a6.28 6.28 0 0 1-3.024.756c-4.14 0-7.596-3.96-7.596-9.504Zm18.828 1.188c0 7.776-5.22 12.384-11.268 12.384-6.804 0-11.88-5.688-11.88-13.356 0-7.632 5.22-12.348 10.98-12.636-4.284 1.8-7.632 6.156-7.632 12.42 0 6.012 3.816 10.476 8.532 10.476 4.104 0 7.92-3.24 7.92-9.036 0-5.184-3.24-8.568-7.308-9 .936-.468 1.98-.756 3.06-.756 4.14 0 7.596 3.96 7.596 9.504ZM135.665 51.509l6.624 7.668h-4.356l-6.624-7.668h-3.744v7.668h-3.348V37.073h11.376c5.472 0 9.18 3.42 9.18 9.144 0 4.248-2.052 7.2-5.148 8.352l-2.088-2.412c2.412-.828 3.888-2.844 3.888-5.94 0-3.852-2.34-6.264-6.624-6.264h-7.236v8.676h6.948c1.728 0 2.628-1.044 2.628-2.448 0-1.512-1.116-2.376-2.592-2.376h-1.98l-3.24-2.88h5.4c3.816 0 5.724 2.124 5.724 5.292 0 3.06-1.584 4.968-4.788 5.292Zm-3.78 10.908-3.348-2.988v-6.336l3.348 3.024v6.3Zm-3.348-14.76v-6.12l3.348 3.024v3.096h-3.348Zm12.744 15.372-2.484-2.88h4.32l2.52 2.88h-4.356Zm-13.428-2.88 3.204 2.88h-2.808l-3.24-2.88h2.844Zm4.716-4.788-3.24-2.88h1.476l2.52 2.88h-.756ZM161.143 50.393c0-7.344 4.86-13.32 11.88-13.32 4.32 0 8.604 3.096 10.332 7.776l-2.737 2.484c-1.008-4.464-4.283-7.164-7.595-7.164-4.68 0-8.533 4.428-8.533 10.476 0 6.264 3.277 10.62 7.561 12.42-5.436-.36-10.908-4.644-10.908-12.672Zm7.668.504c0 5.796 4.176 9.036 7.884 9.036 3.996 0 7.236-2.592 8.28-7.272l2.772 2.484c-1.872 5.112-6.192 7.884-10.908 7.884-6.156 0-11.377-4.608-11.377-12.384 0-5.724 3.601-9.504 7.597-9.504.936 0 1.943.252 2.843.792-3.996.504-7.091 3.852-7.091 8.964Zm7.884 8.064c-1.008 0-1.98-.252-2.916-.756 3.888-.432 6.12-3.312 6.768-5.76h3.527c-.864 4.176-3.815 6.516-7.379 6.516Zm.576-21.924c4.212.18 8.423 2.7 10.295 7.452h-3.347c-1.404-3.744-4.068-6.228-6.948-7.452Zm9.72 8.424-2.449 2.196h-2.808l2.448-2.196h2.809ZM203.333 55.36l8.532 7.669h-4.932l-8.496-7.668h-2.88v7.668h-3.348V40.925h10.512c3.816 0 5.724 2.124 5.724 5.292 0 3.348-1.908 5.292-5.4 5.292h-5.724l3.24-2.88h1.98c1.692 0 2.592-1.044 2.592-2.448 0-1.512-1.116-2.376-2.628-2.376h-6.948v8.676h7.56c4.068 0 6.3-2.484 6.3-6.264 0-3.852-2.34-6.264-6.624-6.264h-9.792l3.24-2.88h7.344c5.472 0 9.18 3.42 9.18 9.144 0 5.76-3.6 9.144-9 9.144h-.432Zm9.936 7.525-7.488-6.696a9.556 9.556 0 0 0 3.564-1.224l6.336 5.724-2.412 2.196Zm-16.74-11.988v-6.12h3.348v3.096l-3.348 3.024Zm0 11.52v-6.084h1.404l1.944 1.764v1.332l-3.348 2.988ZM223.107 63.029V41.537l3.348 3.024v5.976h12.888v2.88h-12.888v6.732h12.888v2.88h-16.236Zm11.916-23.076h-12.888v22.464l-3.348-2.988V37.073h16.236v2.88Zm-7.884 3.852-3.204-2.88h11.376l3.204 2.88h-11.376Zm.288 12.492h7.884l3.204 2.88h-11.088v-2.88Zm0-9.612h7.92l3.168 2.88h-11.088v-2.88Zm11.916-6.012v2.52l-3.348-2.988v-2.52l3.348 2.988ZM250.529 52.445h8.604l1.692 2.88h-11.952l-2.268 3.852h-3.672l12.816-22.104h3.672l-8.892 15.372Zm9.72-8.424-4.356 7.452h-3.6l7.992-13.788 12.744 21.996-2.016 2.88-10.764-18.54Zm-10.116 12.276h12.42l-4.104-7.128 1.8-3.132 9.864 16.992h-3.672l-2.232-3.852h-12.06l-2.016-2.88Zm-5.184 6.732-1.98-2.88h3.816l1.98 2.88h-3.816Zm4.608-.612-1.944-2.844 1.62-2.844 1.98 2.844-1.656 2.844ZM281.677 59.177h-3.348V39.953h-5.076l-3.204-2.88h21.024l3.168 2.88h-12.564v19.224Zm4.32 3.24-3.348-2.988V41.5l3.348 3.024v17.892Zm-2.52-21.492h11.628v2.88h-8.46l-3.168-2.88Zm-9.936 2.88v-2.88h3.816v2.88h-3.816Zm-.972-.648-3.348-2.988v-2.484l3.348 2.988v2.484Zm9.396 16.992 3.204 2.88h-2.808l-3.24-2.88h2.844ZM306.396 39.953h-4.32v-2.88h11.988v2.88h-4.32v15.66l-3.348 2.952V39.953Zm-.972 20.196h4.32v2.88h-11.988v-2.88h4.32V44.56l3.348-2.988v18.576Zm-7.668-19.476 3.348-2.988v2.52l-3.348 2.988v-2.52Zm16.308 18.756-3.348 2.988v-2.52l3.348-2.988v2.52Zm-12.636-15.624h-2.88l3.204-2.88h2.916l-3.24 2.88Zm8.604 15.372h-2.844l3.204-2.88h2.844l-3.204 2.88Zm.684-15.984v-2.268h2.484l-2.484 2.268Zm-9.612 15.984h-2.484l2.484-2.268v2.268ZM320.605 40.925l8.82 15.192 11.016-19.044h3.636l-14.688 25.38-12.456-21.528h3.672Zm13.32 22.104h-3.672l14.76-25.488 2.016 2.88-13.104 22.608Zm-12.348-22.464 1.98-2.88 7.668 13.248-1.8 3.132-7.848-13.5Zm-.792-.612h-3.816l1.98-2.88h3.816l-1.98 2.88ZM353.549 37.685v12.852h12.888v2.88h-12.888v6.732h12.888v2.88h-16.236V40.673l3.348-2.988Zm4.32 2.268v6.012l-3.348 2.988v-11.88h16.236v2.88h-12.888Zm-2.556 9.612 3.24-2.88h11.376l-3.168 2.88h-11.448Zm.036 9.612 3.204-2.88h11.412l-3.204 2.88h-11.412Zm3.492-15.372v-2.88h11.088l-3.204 2.88h-7.884Zm-4.32 14.76v-4.176h3.348v1.152l-3.348 3.024Zm16.236-8.784-3.348 3.06v-2.556l3.348-2.988v2.484Zm0 9.648-3.348 2.988v-2.52l3.348-2.988v2.52ZM386.983 59.933c2.412 0 4.284-1.476 4.284-3.852 0-1.98-1.26-3.528-3.276-4.86l-4.572-2.988c-1.8-1.188-3.06-2.376-3.06-4.212 0-1.836 1.44-2.88 3.312-2.88.108 0 .252 0 .36.036-.216.432-.324.936-.324 1.584 0 1.584.828 2.664 2.484 3.744l4.536 3.024c2.196 1.476 3.888 3.456 3.888 6.588 0 4.14-3.168 6.912-7.74 6.912-4.32 0-7.02-2.304-7.956-4.968l2.7-2.412c.648 2.664 2.52 4.284 5.364 4.284Zm-.036-2.592c0-1.584-.828-2.664-2.376-3.672l-4.68-3.132c-2.088-1.368-3.852-3.42-3.852-6.552 0-4.5 3.888-6.912 7.74-6.912 4.284 0 7.02 2.304 7.956 4.968l-2.7 2.376c-.684-2.628-2.556-4.248-5.364-4.248-2.412 0-4.284 1.476-4.284 3.852 0 1.98 1.26 3.492 3.24 4.824l4.5 2.952c1.908 1.26 3.168 2.448 3.168 4.284 0 1.836-1.44 2.88-3.312 2.88h-.396c.216-.432.36-.972.36-1.62Zm9.036-15.624h-3.312c-.792-1.908-2.268-3.672-4.5-4.716 3.06.036 6.552 1.764 7.812 4.716Zm-21.312 16.668h3.312c.756 1.908 2.232 3.708 4.5 4.716-3.096-.036-6.552-1.728-7.812-4.716Zm.648-.972 2.448-2.196h2.808l-2.448 2.196h-2.808Zm20.016-14.724-2.448 2.196h-2.808l2.448-2.196h2.808Z"/><path fill="#111419" d="M27.568 20.656h-4.32v2.88l-4.464 3.996c-1.332.324-2.376.468-3.852.468C7.984 28 1.72 21.844 1.72 13.636 1.72 4.744 8.452.1 15.364.1h3.924c7.776 0 12.6 5.148 12.6 10.872v5.796l-4.32 3.888Zm-4.32-2.556v1.584h3.348v-7.2c0-4.896-3.312-7.596-7.308-7.596-4.176 0-7.992 2.736-7.992 7.488 0 4.644 3.348 7.308 7.092 7.308 1.728 0 3.384-.36 4.86-1.584Zm-4.824 2.556c-4.68 0-8.1-3.312-8.1-8.244 0-5.004 3.816-8.496 8.964-8.496 4.284 0 8.28 2.952 8.28 8.568v6.84l3.348-3.06v-5.292c0-5.58-4.824-9.9-11.628-9.9-6.624 0-12.312 3.96-12.312 11.772 0 5.724 4.212 10.224 8.712 10.188 1.26 0 1.98-.072 2.52-.18l2.844-2.556c-.756.252-1.62.36-2.628.36Zm-3.564 6.372c1.296 0 2.196-.072 3.096-.288v-2.88c-.576.072-1.332.144-2.268.144-4.86 0-9.684-4.608-9.684-11.16 0-6.48 3.6-10.188 7.92-11.808-5.652.612-11.232 4.716-11.232 12.6 0 7.668 5.796 13.392 12.168 13.392Zm8.388-14.724c0 2.376-1.764 4.5-4.464 4.5-2.232 0-4.14-1.98-4.14-4.5 0-2.412 1.764-4.536 4.356-4.536 2.376 0 4.248 1.692 4.248 4.536Zm-.972 10.764v-2.52l-3.348 2.988v2.52l3.348-2.988Zm-.828-8.424c-2.016-.36-3.528-2.196-3.528-4.464 0-.432.036-.9.144-1.296-1.512.432-2.448 1.908-2.448 3.42 0 2.124 1.62 3.528 3.132 3.528 1.152 0 2.088-.468 2.7-1.188Zm.828-2.34c0-2.052-1.26-3.492-3.132-3.564-.18.468-.252.936-.252 1.44 0 2.052 1.476 3.42 3.096 3.528.18-.432.288-.9.288-1.404ZM45.488 23.896V20.26l9.72-9.792c1.44-1.44 1.8-2.16 1.8-3.276 0-.72-.252-1.404-.54-1.908-1.944.468-3.168 2.124-3.42 4.572h-5.04L44.12 6.364C44.768 3.232 48.332.1 53.84.1h3.924c4.68 0 8.856 3.06 8.856 8.46 0 2.592-1.008 4.608-3.384 7.02l-3.708 3.744h4.104l4.572 4.104V28H50.06l-4.572-4.104Zm5.796-3.6 8.352-8.424c1.224-1.224 1.692-2.052 1.692-3.348 0-2.16-1.476-3.384-3.636-3.384h-.144c.252.576.432 1.26.432 2.052 0 1.368-.468 2.412-1.872 3.816l-9.648 9.72v2.448h16.452v-2.88H51.284Zm6.408-19.224c-4.392 0-7.2 2.268-8.172 4.896l2.736 2.448c.648-2.52 2.592-4.248 5.436-4.248 2.664 0 4.608 1.656 4.608 4.392 0 1.512-.504 2.592-2.448 4.536l-6.192 6.228h4.464l4.608-4.716c2.088-2.16 2.916-3.708 2.916-6.048 0-5.184-4.068-7.488-7.956-7.488Zm-10.44 23.076 3.24 2.88h15.912l-3.204-2.88H47.252ZM53.192 1c-3.168.072-6.624 1.728-7.848 4.716h3.24C49.232 3.88 50.78 2.044 53.192 1Zm10.692 19.908v2.52l3.348 2.988v-2.52l-3.348-2.988ZM48.44 8.884h2.808L48.8 6.688h-2.808l2.448 2.196ZM93.868 13.672c0 9.216-4.86 14.328-11.052 14.328h-3.852C73.132 28 68.2 22.816 68.2 14.428 68.2 5.176 73.06.1 79.324.1h3.78c5.832 0 10.764 5.112 10.764 13.572Zm-24.696.756c0 7.596 4.248 12.672 9.9 12.708-3.276-1.476-6.552-5.148-6.552-12.492 0-6.876 3.276-10.476 6.732-10.476 3.708 0 5.976 3.888 5.976 9.036 0 4.248-1.62 8.424-4.752 9a3.92 3.92 0 0 0 2.304.756c3.168 0 5.796-3.816 5.796-9.504 0-9.432-5.76-12.384-9.288-12.384-5.904 0-10.116 4.968-10.116 13.356Zm13.644 12.6c5.868 0 10.08-4.968 10.08-13.356 0-7.56-4.248-12.6-9.864-12.708 3.24 1.512 6.516 5.148 6.516 12.492 0 6.876-3.276 10.476-6.732 10.476-3.708 0-5.976-3.888-5.976-9.036 0-4.212 1.584-8.388 4.716-9-.72-.504-1.512-.756-2.304-.756-3.132 0-5.76 3.888-5.76 9.504 0 9.432 5.76 12.384 9.324 12.384Zm-3.24-5.616c3.6-.252 4.68-5.004 4.68-8.172 0-3.096-.72-5.256-1.8-6.552-3.6.252-4.644 5.04-4.644 8.172 0 3.132.72 5.256 1.764 6.552ZM95.058 23.896V20.26l9.72-9.792c1.44-1.44 1.8-2.16 1.8-3.276 0-.72-.252-1.404-.54-1.908-1.944.468-3.168 2.124-3.42 4.572h-5.04L93.69 6.364C94.338 3.232 97.902.1 103.41.1h3.924c4.68 0 8.856 3.06 8.856 8.46 0 2.592-1.008 4.608-3.384 7.02l-3.708 3.744h4.104l4.572 4.104V28H99.63l-4.572-4.104Zm5.796-3.6 8.352-8.424c1.224-1.224 1.692-2.052 1.692-3.348 0-2.16-1.476-3.384-3.636-3.384h-.144c.252.576.432 1.26.432 2.052 0 1.368-.468 2.412-1.872 3.816l-9.648 9.72v2.448h16.452v-2.88h-11.628Zm6.408-19.224c-4.392 0-7.2 2.268-8.172 4.896l2.736 2.448c.648-2.52 2.592-4.248 5.436-4.248 2.664 0 4.608 1.656 4.608 4.392 0 1.512-.504 2.592-2.448 4.536l-6.192 6.228h4.464l4.608-4.716c2.088-2.16 2.916-3.708 2.916-6.048 0-5.184-4.068-7.488-7.956-7.488Zm-10.44 23.076 3.24 2.88h15.912l-3.204-2.88H96.822ZM102.762 1c-3.168.072-6.624 1.728-7.848 4.716h3.24c.648-1.836 2.196-3.672 4.608-4.716Zm10.692 19.908v2.52l3.348 2.988v-2.52l-3.348-2.988ZM98.01 8.884h2.808L98.37 6.688h-2.808l2.448 2.196Z"/><path fill="#111419" d="M126.614.1h4.176c6.192 0 8.928 3.816 8.928 7.92 0 1.908-.792 3.744-1.8 4.824 1.98 1.404 3.06 3.924 3.06 6.516 0 5.976-4.572 8.64-9.432 8.64h-4.32c-5.256 0-9.108-3.132-10.008-6.264l3.888-3.492h5.04c.36 2.304 1.548 3.816 3.42 4.428 1.116-.54 1.8-1.8 1.8-3.204 0-1.656-1.116-3.492-4.212-3.492h-2.052v-4.824h2.016c1.764 0 2.988-1.152 2.988-3.024 0-1.152-.576-2.052-1.476-2.52-1.368.684-2.16 2.088-2.484 4.248h-5.184l-3.672-3.312C118.01 4.06 120.674.1 126.614.1Zm4.176.864h-.036c2.628 1.188 4.644 3.528 4.644 7.056 0 2.268-.864 4.032-2.088 5.076 1.944 1.044 3.348 2.988 3.348 5.616 0 3.384-2.484 5.22-5.112 5.22-3.096 0-5.328-1.692-6.12-4.32l-2.808 2.484c1.116 2.628 4.212 4.932 8.928 4.932 4.176 0 8.46-2.16 8.46-7.668 0-2.88-1.404-5.364-3.564-6.336 1.512-1.296 2.304-3.096 2.304-4.968 0-3.996-2.88-7.092-7.956-7.092Zm-4.176.108c-4.788 0-7.344 2.988-8.208 5.148l2.664 2.376c.684-2.952 3.168-4.428 5.544-4.428 2.7 0 4.464 1.548 4.464 3.96 0 2.376-1.44 3.96-3.816 3.96h-1.188v2.916h1.08c3.636 0 5.184 2.268 5.184 4.428 0 1.296-.432 2.592-1.404 3.492.18.036.396.036.612.036 2.448 0 4.14-1.656 4.14-4.248 0-2.484-1.656-4.86-4.464-5.328 2.16-1.188 3.204-2.844 3.204-5.364 0-4.752-4.032-6.948-7.812-6.948Zm-8.1 21.312c1.188 2.52 4.248 4.716 8.28 4.716-2.52-1.044-4.32-2.844-5.076-4.716h-3.204Zm8.1-17.244c-2.16 0-3.996 1.332-4.608 3.744h3.312c.288-1.584 1.116-2.844 2.196-3.672a7.579 7.579 0 0 0-.9-.072Zm-4.716 16.272 2.448-2.196h-2.808l-2.448 2.196h2.808ZM8.812 64h-5.4L.424 59.68l13.68-23.58h5.4l13.68 23.616L30.232 64h-5.436l-2.232-3.852h-11.52L8.812 64Zm15.3-11.556h-8.604l-1.692 2.88h11.952l2.268 3.852h3.672L18.892 37.072H15.22l8.892 15.372Zm-9.72-8.424 4.356 7.452h3.6l-7.992-13.788L1.612 59.68l2.016 2.88 10.764-18.54Zm10.116 12.276h-12.42l4.104-7.128-1.8-3.132-9.864 16.992H8.2l2.232-3.852h12.06l2.016-2.88Zm5.184 6.732 1.98-2.88h-3.816l-1.98 2.88h3.816Zm-4.608-.612 1.944-2.844-1.62-2.844-1.98 2.844 1.656 2.844Zm-7.56-10.944-.72-1.26-.72 1.26h1.44ZM52.312 59.896 47.74 64H34.06v-4.572l4.32-3.852v-10.8h-4.32v-4.572l4.572-4.104h13.68v4.572l-4.32 3.852v10.8h4.32v4.572Zm-12.96-19.944h4.32v18.612l3.348-2.952v-15.66h4.32v-2.88H39.352v2.88Zm7.668 20.196H42.7V41.572l-3.348 2.988v15.588h-4.32v2.88H47.02v-2.88Zm-8.64-22.464-3.348 2.988v2.52l3.348-2.988v-2.52Zm9.612 24.732 3.348-2.988v-2.52l-3.348 2.988v2.52ZM35.824 43.804h2.88l3.24-2.88h-2.916l-3.204 2.88Zm8.64 15.372h2.844l3.204-2.88h-2.844l-3.204 2.88Zm3.528-18.252v2.268l2.484-2.268h-2.484ZM35.896 59.176h2.484v-2.268l-2.484 2.268ZM72.145 41.536v21.492h3.348v-9.612H88.38v-2.88H75.493V44.56l-3.348-3.024Zm-.972-1.584H84.06v-2.88H67.825v22.356l3.348 2.988V39.952Zm1.8.972 3.204 2.88h11.376l-3.204-2.88H72.973Zm3.492 13.464V64h-5.04l-4.572-4.104V36.1H84.78l4.572 4.104v4.572H76.465v.936h8.28l4.608 4.104v4.572H76.465Zm7.92-7.704h-7.92v2.88h11.052l-3.132-2.88Zm3.996-3.492v-2.52l-3.348-2.988v2.52l3.348 2.988ZM108.252 64h-3.996c-7.128 0-12.888-5.832-12.888-14.328 0-8.46 5.904-13.572 12.528-13.572h3.96c6.732 0 12.924 5.4 12.924 14.328 0 8.46-5.904 13.572-12.528 13.572ZM96.66 49.456c0 5.544 3.456 9.504 7.596 9.504a6.28 6.28 0 0 0 3.024-.756c-4.068-.396-7.272-3.816-7.272-9 0-5.796 3.816-9.036 7.884-9.036 4.752 0 8.568 4.464 8.568 10.476 0 6.084-3.168 10.584-7.596 12.456 5.796-.36 10.944-5.04 10.944-12.672 0-8.532-5.76-13.356-11.772-13.356-6.156 0-11.376 4.608-11.376 12.384Zm18.828 1.188c0-5.544-3.456-9.504-7.596-9.504-1.08 0-2.124.288-3.06.756 4.068.432 7.308 3.816 7.308 9 0 5.796-3.816 9.036-7.92 9.036-4.716 0-8.532-4.464-8.532-10.476 0-6.264 3.348-10.62 7.632-12.42-5.76.288-10.98 5.004-10.98 12.636 0 7.668 5.076 13.356 11.88 13.356 6.048 0 11.268-4.608 11.268-12.384Zm-4.32.216c0-5.22-3.816-8.352-7.668-8.028-1.512 1.368-2.52 3.564-2.52 6.408 0 5.256 3.816 8.388 7.632 8.064 1.548-1.404 2.556-3.6 2.556-6.444ZM132.855 56.332V64h-5.04l-4.572-4.104V36.1h12.384c5.472 0 10.116 3.312 10.116 10.116 0 4.86-2.232 7.848-5.436 9.144l7.488 8.64h-6.984l-6.66-7.668h-1.296Zm9.432 2.844-6.624-7.668c3.204-.324 4.788-2.232 4.788-5.292 0-3.168-1.908-5.292-5.724-5.292h-5.4l3.24 2.88h1.98c1.476 0 2.592.864 2.592 2.376 0 1.404-.9 2.448-2.628 2.448h-6.948v-8.676h7.236c4.284 0 6.624 2.412 6.624 6.264 0 3.096-1.476 5.112-3.888 5.94l2.088 2.412c3.096-1.152 5.148-4.104 5.148-8.352 0-5.724-3.708-9.144-9.18-9.144h-11.376v22.104h3.348v-7.668h3.744l6.624 7.668h4.356Zm-13.752.252 3.348 2.988v-6.3l-3.348-3.024v6.336Zm0-17.892v6.12h3.348V44.56l-3.348-3.024Zm10.26 18.612 2.484 2.88h4.356l-2.52-2.88h-4.32Zm-4.176-15.372h-1.764v2.88h1.728c1.26 0 1.62-.792 1.62-1.476 0-.864-.576-1.404-1.584-1.404Zm-3.564 18.252-3.204-2.88h-2.844l3.24 2.88h2.808Zm-1.728-10.548 3.24 2.88h.756l-2.52-2.88h-1.476ZM179.933 48.628c-.324-2.592-1.44-4.536-2.844-5.832-3.708-.108-7.308 2.952-7.308 8.064 0 2.88 1.116 5.04 2.7 6.444 4.068.252 6.66-2.628 7.272-5.832h5.436l3.672 3.312C187.277 60.256 182.489 64 176.657 64h-3.96c-6.156 0-12.528-4.68-12.528-13.608 0-8.244 5.508-14.292 12.888-14.292h3.744c5.472 0 10.08 3.204 12.024 9.072l-3.852 3.456h-5.04Zm-18.792 1.764c0 8.028 5.472 12.312 10.908 12.672-4.284-1.8-7.56-6.156-7.56-12.42 0-6.048 3.852-10.476 8.532-10.476 3.312 0 6.588 2.7 7.596 7.164l2.736-2.484c-1.728-4.68-6.012-7.776-10.332-7.776-7.02 0-11.88 5.976-11.88 13.32Zm7.668.504c0-5.112 3.096-8.46 7.092-8.964a5.578 5.578 0 0 0-2.844-.792c-3.996 0-7.596 3.78-7.596 9.504 0 7.776 5.22 12.384 11.376 12.384 4.716 0 9.036-2.772 10.908-7.884l-2.772-2.484c-1.044 4.68-4.284 7.272-8.28 7.272-3.708 0-7.884-3.24-7.884-9.036Zm7.884 8.064c3.564 0 6.516-2.34 7.38-6.516h-3.528c-.648 2.448-2.88 5.328-6.768 5.76.936.504 1.908.756 2.916.756Zm.576-21.924c2.88 1.224 5.544 3.708 6.948 7.452h3.348c-1.872-4.752-6.084-7.272-10.296-7.452Zm7.272 10.62 2.448-2.196h-2.808l-2.448 2.196h2.808ZM200.848 59.896 196.276 64h-5.04V40.204l4.572-4.104h7.812c5.472 0 10.116 3.312 10.116 10.116 0 3.708-1.26 6.48-3.492 8.136l6.984 6.3L213.52 64h-7.092l-5.58-5.04v.936Zm11.016 3.132-8.532-7.668h.432c5.4 0 9-3.384 9-9.144 0-5.724-3.708-9.144-9.18-9.144h-7.344l-3.24 2.88h9.792c4.284 0 6.624 2.412 6.624 6.264 0 3.78-2.232 6.264-6.3 6.264h-7.56v-8.676h6.948c1.512 0 2.628.864 2.628 2.376 0 1.404-.9 2.448-2.592 2.448h-1.98l-3.24 2.88h5.724c3.492 0 5.4-1.944 5.4-5.292 0-3.168-1.908-5.292-5.724-5.292h-10.512v22.104h3.348V55.36h2.88l8.496 7.668h4.932Zm-6.084-6.84 7.488 6.696 2.412-2.196-6.336-5.724a9.556 9.556 0 0 1-3.564 1.224Zm-9.252-11.412v6.12l3.348-3.024v-3.096h-3.348Zm0 11.556v6.084l3.348-2.988v-1.332l-1.944-1.764h-1.404Zm4.32-8.676h1.764c1.224 0 1.584-.792 1.584-1.44 0-.9-.576-1.44-1.584-1.44h-1.764v2.88ZM240.314 40.204v4.572h-12.888v.936h8.316l4.572 4.104v4.572h-12.888v.936h8.316l4.572 4.104V64h-17.928l-4.572-4.104V36.1h17.928l4.572 4.104Zm-17.208 1.332v21.492h16.236v-2.88h-12.888v-6.732h12.888v-2.88h-12.888V44.56l-3.348-3.024Zm-.972-1.584h12.888v-2.88h-16.236v22.356l3.348 2.988V39.952Zm1.8.972 3.204 2.88h11.376l-3.204-2.88h-11.376Zm11.376 15.372h-7.884v2.88h11.088l-3.204-2.88Zm.036-9.612h-7.92v2.88h11.088l-3.168-2.88Zm3.996-3.492v-2.52l-3.348-2.988v2.52l3.348 2.988ZM271.227 64h-5.4l-2.232-3.852h-11.52L249.843 64h-5.436l-2.952-4.284 13.68-23.616h5.4l13.68 23.58-2.988 4.32Zm-12.096-11.556h-8.604l8.892-15.372h-3.672l-12.816 22.104h3.672l2.268-3.852h11.952l-1.692-2.88Zm-3.24-.972 4.356-7.452 10.764 18.54 2.016-2.88-12.744-21.996-7.992 13.788h3.6Zm6.66 4.824h-12.42l2.016 2.88h12.06l2.232 3.852h3.672l-9.864-16.992-1.8 3.132 4.104 7.128Zm-19.584 3.852 1.98 2.88h3.816l-1.98-2.88h-3.816Zm4.644-.576 1.944 2.844 1.656-2.844-1.98-2.844-1.62 2.844Zm10.224-9.36-.72 1.26h1.44l-.72-1.26ZM268.247 40.672V36.1h23.257l4.572 4.104v4.572h-9.109V64h-5.04l-4.572-4.104v-15.12h-4.5l-4.608-4.104Zm10.081 18.504h3.348V39.952h12.564l-3.168-2.88h-21.024l3.203 2.88h5.077v19.224Zm4.319.252 3.349 2.988V44.524l-3.349-3.024v17.928Zm12.457-18.504h-11.629l3.168 2.88h8.461v-2.88Zm-21.565 0v2.88h3.816v-2.88h-3.816Zm-4.319-.756 3.348 2.988v-2.484l-3.348-2.988v2.484Zm15.948 22.86-3.204-2.88h-2.844l3.239 2.88h2.809ZM315.035 59.896 310.463 64h-13.68v-4.572l4.32-3.852v-10.8h-4.32v-4.572l4.572-4.104h13.68v4.572l-4.32 3.852v10.8h4.32v4.572Zm-12.96-19.944h4.32v18.612l3.348-2.952v-15.66h4.32v-2.88h-11.988v2.88Zm7.668 20.196h-4.32V41.572l-3.348 2.988v15.588h-4.32v2.88h11.988v-2.88Zm-8.64-22.464-3.348 2.988v2.52l3.348-2.988v-2.52Zm9.612 24.732 3.348-2.988v-2.52l-3.348 2.988v2.52Zm-12.168-18.612h2.88l3.24-2.88h-2.916l-3.204 2.88Zm8.64 15.372h2.844l3.204-2.88h-2.844l-3.204 2.88Zm3.528-18.252v2.268l2.484-2.268h-2.484Zm-12.096 18.252h2.484v-2.268l-2.484 2.268ZM334.536 64h-5.4l-13.68-23.616 2.952-4.284h5.436l7.992 13.824 7.992-13.824h5.4l2.988 4.32L334.536 64Zm-5.112-7.884-8.82-15.192h-3.672l12.456 21.528 14.688-25.38h-3.636l-11.016 19.044Zm.828 6.912h3.672l13.104-22.608-2.016-2.88-14.76 25.488Zm-6.696-25.344-1.98 2.88 7.848 13.5 1.8-3.132-7.668-13.248Zm-6.588 2.268h3.816l1.98-2.88h-3.816l-1.98 2.88ZM371.728 40.672l-4.572 4.104h-8.316v.936h12.888v4.572l-4.572 4.104h-8.316v.936h12.888v4.572L367.156 64h-17.928V40.204L353.8 36.1h17.928v4.572Zm-18.18 9.864V37.684l-3.348 2.988v22.356h16.236v-2.88h-12.888v-6.732h12.888v-2.88h-12.888Zm4.32-4.572v-6.012h12.888v-2.88H354.52v11.88l3.348-2.988Zm.684.72-3.24 2.88h11.448l3.168-2.88h-11.376Zm0 9.612-3.204 2.88h11.412l3.204-2.88h-11.412Zm.288-15.372v2.88h7.884l3.204-2.88H358.84Zm-4.32 13.464v4.176l3.348-3.024v-1.152h-3.348Zm12.888-1.548 3.348-3.06v-2.484l-3.348 2.988v2.556Zm0 9.576 3.348-2.988v-2.52l-3.348 2.988v2.52ZM382.373 54.244c.036 2.232 1.368 3.96 3.24 4.536.252-.36.36-.828.36-1.44 0-1.152-.9-2.232-2.304-3.168l-4.5-2.988c-2.088-1.368-4.104-3.636-4.104-7.2 0-5.04 4.32-7.884 8.712-7.884h4.284c4.932 0 8.568 3.492 9.144 6.264l-3.888 3.492h-5.04c-.072-2.196-1.368-3.96-3.276-4.5-.216.36-.324.792-.324 1.404 0 1.152.54 1.98 2.34 3.168l4.428 2.952c2.124 1.404 4.14 3.672 4.14 7.236 0 4.68-3.6 7.884-8.712 7.884h-4.284c-4.932 0-8.568-3.492-9.144-6.264l3.888-3.492h5.04Zm4.608 5.688c-2.844 0-4.716-1.62-5.364-4.284l-2.7 2.412c.936 2.664 3.636 4.968 7.956 4.968 4.572 0 7.74-2.772 7.74-6.912 0-3.132-1.692-5.112-3.888-6.588l-4.536-3.024c-1.656-1.08-2.484-2.16-2.484-3.744 0-.648.108-1.152.324-1.584-.108-.036-.252-.036-.36-.036-1.872 0-3.312 1.044-3.312 2.88 0 1.836 1.26 3.024 3.06 4.212l4.572 2.988c2.016 1.332 3.276 2.88 3.276 4.86 0 2.376-1.872 3.852-4.284 3.852Zm-.036-2.592c0 .648-.144 1.188-.36 1.62h.396c1.872 0 3.312-1.044 3.312-2.88 0-1.836-1.26-3.024-3.168-4.284l-4.5-2.952c-1.98-1.332-3.24-2.844-3.24-4.824 0-2.376 1.872-3.852 4.284-3.852 2.808 0 4.68 1.62 5.364 4.248l2.7-2.376c-.936-2.664-3.672-4.968-7.956-4.968-3.852 0-7.74 2.412-7.74 6.912 0 3.132 1.764 5.184 3.852 6.552l4.68 3.132c1.548 1.008 2.376 2.088 2.376 3.672Zm9.036-15.624c-1.26-2.952-4.752-4.68-7.812-4.716 2.232 1.044 3.708 2.808 4.5 4.716h3.312Zm-21.312 16.668c1.26 2.988 4.716 4.68 7.812 4.716-2.268-1.008-3.744-2.808-4.5-4.716h-3.312Zm3.096-3.168-2.448 2.196h2.808l2.448-2.196h-2.808Zm15.12-10.332 2.448-2.196h-2.808l-2.448 2.196h2.808Z"/></svg>