<svg width="86" height="72" viewBox="0 0 86 72" fill="none" xmlns="http://www.w3.org/2000/svg">
<path d="M70.0384 22.5721C70.0798 23.1579 70.0798 23.7438 70.0798 24.3351C70.0798 42.351 56.0461 63.1289 30.3848 63.1289V63.1181C22.8044 63.1289 15.3815 61.0068 9 57.0057C10.1023 57.1353 11.21 57.2001 12.3206 57.2028C18.6026 57.2082 24.7051 55.1482 29.6472 51.3549C23.6774 51.2443 18.4424 47.4402 16.6136 41.8866C18.7048 42.2808 20.8596 42.1998 22.9122 41.6518C16.4036 40.3666 11.7211 34.778 11.7211 28.2876V28.1148C13.6604 29.1705 15.8318 29.7563 18.0529 29.8211C11.9228 25.8173 10.0332 17.8474 13.735 11.6162C20.8182 20.1341 31.2689 25.3124 42.4875 25.8605C41.3632 21.125 42.8992 16.1627 46.5236 12.8338C52.1426 7.67171 60.98 7.93629 66.262 13.425C69.3864 12.823 72.381 11.7026 75.1215 10.1151C74.08 13.2712 71.9003 15.9521 68.9886 17.6557C71.7539 17.3371 74.4557 16.6135 77 15.5093C75.127 18.2523 72.7678 20.6417 70.0384 22.5721Z" fill="#59ff03"/>
</svg>
