<svg width="86" height="72" viewBox="0 0 86 72" fill="none" xmlns="http://www.w3.org/2000/svg">
<path fill-rule="evenodd" clip-rule="evenodd" d="M69.4444 70H16.5556C12.3827 70 9 66.6173 9 62.4444V9.55556C9 5.38274 12.3827 2 16.5556 2H69.4444C73.6173 2 77 5.38274 77 9.55556V62.4444C77 66.6173 73.6173 70 69.4444 70ZM57.4648 60.5556H67.5556V39.8261C67.5556 31.0553 62.5837 26.8145 55.6391 26.8145C48.6913 26.8145 45.7673 32.225 45.7673 32.225V27.8148H36.0426V60.5556H45.7673V43.3687C45.7673 38.7635 47.8871 36.0232 51.9446 36.0232C55.6743 36.0232 57.4648 38.6565 57.4648 43.3687V60.5556ZM18.4444 17.4861C18.4444 20.8225 21.1286 23.5277 24.441 23.5277C27.7535 23.5277 30.4361 20.8225 30.4361 17.4861C30.4361 14.1497 27.7535 11.4444 24.441 11.4444C21.1286 11.4444 18.4444 14.1497 18.4444 17.4861ZM29.56 60.5556H19.4196V27.8148H29.56V60.5556Z" fill="#59ff03"/>
</svg>
