<svg width="113" height="100" viewBox="0 0 113 100" fill="none" xmlns="http://www.w3.org/2000/svg">
<path fill-rule="evenodd" clip-rule="evenodd" d="M17.5296 47.6977C19.5477 47.2341 21.6121 47 23.6833 47H64.2525C66.9731 47 69.7098 47.8624 71.7505 49.9954C73.7782 52.115 74.7016 55.0524 74.7016 58.3925C74.7016 62.4755 73.1992 65.4408 70.7551 67.2612C68.4956 68.9441 65.9053 69.2909 64.2525 69.2909H46.8372C45.9163 69.2909 45.2496 69.3333 44.7521 69.4207C44.313 69.4977 44.1382 69.5881 44.0955 69.6136C44.0868 69.6282 44.0716 69.6567 44.0526 69.704C43.9751 69.8963 43.8518 70.3569 43.8518 71.271C43.8518 72.1713 43.9711 72.7242 44.0842 73.0397C44.1887 73.3308 44.2874 73.4234 44.3159 73.449C44.3835 73.5095 44.7218 73.7477 45.8421 73.7477H74.7516L84.6782 63.866C86.3975 62.1545 89.0052 61.1657 91.5816 61.0002C94.2315 60.83 97.2596 61.5011 99.7932 63.6312C102.95 66.1082 104.087 69.417 103.995 72.4286C103.91 75.2109 102.777 77.8783 101.156 79.5576L89.2009 93.4417L89.1064 93.5359C86.043 96.5853 82.0763 100 76.1943 100H1.55766V93.0654H76.1943C79.039 93.0654 81.2257 91.5596 84.0874 88.7249L96.0279 74.8574L96.1225 74.7632C96.4338 74.4533 96.9942 73.4617 97.032 72.2186C97.0641 71.1642 96.7239 70.0396 95.4518 69.0547L95.3864 69.004L95.3234 68.9503C94.3868 68.1511 93.2142 67.8443 92.0301 67.9204C90.7503 68.0026 89.875 68.4997 89.6039 68.7695L79.2402 79.0864C78.2137 80.1082 76.8215 80.6822 75.3699 80.6822H45.8421C43.9769 80.6822 41.5785 80.326 39.6558 78.6034C37.6644 76.8192 36.8857 74.2147 36.8857 71.271C36.8857 68.3397 37.6721 65.5966 40.1348 63.9084C42.239 62.466 44.8833 62.3563 46.8372 62.3563H64.2525C65.0875 62.3563 65.9803 62.1567 66.5819 61.7087C66.9988 61.3982 67.7355 60.648 67.7355 58.3925C67.7355 56.2841 67.1662 55.2589 66.706 54.7779C66.2589 54.3105 65.5125 53.9346 64.2525 53.9346H23.6833C22.1393 53.9346 20.6004 54.1091 19.096 54.4547L18.7391 54.5366C16.708 55.0032 14.7396 55.7079 12.8752 56.6359L3.11533 61.4938L0 55.2913L9.75989 50.4334C12.1168 49.2603 14.6051 48.3695 17.1727 47.7797L17.5296 47.6977Z" fill="#59ff03"/>
<path fill-rule="evenodd" clip-rule="evenodd" d="M85.9563 2.9241C88.8287 1.02775 92.2191 0 95.7086 0C100.208 0 104.543 1.70863 107.814 4.78475L107.816 4.78603C111.121 7.8966 113 12.2198 113 16.7511C113 21.2782 111.124 25.5978 107.825 28.7078L90.6472 45.0929C90.6461 45.094 90.645 45.0951 90.6439 45.0962C89.4735 46.2172 87.9442 46.8871 86.3293 46.9926L86.2079 47.0005L86.0862 47C84.3317 46.9924 82.6375 46.3174 81.3608 45.1004L81.3598 45.0995L64.1757 28.7076C60.8764 25.5978 59 21.2783 59 16.7511C59 12.2196 60.8798 7.89642 64.1848 4.78595L64.2135 4.75886L64.2429 4.73243C67.5454 1.76208 71.8417 0.122089 76.2916 0.122089C79.7345 0.122089 83.0861 1.10388 85.9563 2.9241ZM95.7086 7C92.98 7 90.3633 8.03677 88.3979 9.88462L86.053 12.0893L83.6599 9.93697C81.6502 8.12936 79.0231 7.12209 76.2916 7.12209C73.5737 7.12209 70.9597 8.11934 68.9537 9.91036C67.0621 11.7053 66 14.1765 66 16.7511C66 19.3385 67.0727 21.8215 68.9822 23.6187L68.9908 23.6267L86.0001 39.8519L103.01 23.6268L103.018 23.6187C104.927 21.8217 106 19.3387 106 16.7511C106 14.164 104.928 11.6815 103.019 9.88462M95.7086 7C98.4374 7 101.054 8.037 103.019 9.88462Z" fill="#59ff03"/>
</svg>
