<svg width="86" height="72" viewBox="0 0 86 72" fill="none" xmlns="http://www.w3.org/2000/svg">
<path fill-rule="evenodd" clip-rule="evenodd" d="M86 36C86 50.9117 73.9117 63 59 63L48 63V55L59 55C69.4934 55 78 46.4934 78 36C78 25.5066 69.4934 17 59 17L48 17V9L59 9C73.9117 9 86 21.0883 86 36ZM27 9C12.0883 9 0 21.0883 0 36C0 50.9117 12.0883 63 27 63H38V55H27C16.5066 55 8 46.4934 8 36C8 25.5066 16.5066 17 27 17H38V9H27ZM27 36C27 33.7909 28.7909 32 31 32H55C57.2091 32 59 33.7909 59 36C59 38.2091 57.2091 40 55 40H31C28.7909 40 27 38.2091 27 36Z" fill="#59ff03"/>
</svg>
