<svg width="600" height="601" viewBox="0 0 600 601" fill="none" xmlns="http://www.w3.org/2000/svg">
<g clip-path="url(#clip0_664_203)">
<path d="M314.099 0.992188L323.238 1.55598L332.596 39.0795L325.084 38.6096L323.144 30.1214L310.406 29.3384L307.433 37.5447L300.234 37.1062L314.099 0.992188ZM312.534 23.3559L321.767 23.9197L318.199 8.07091H318.011L312.534 23.3559Z" fill="black"/>
<path d="M362.863 36.6699L358.67 18.4407L358.482 18.378L352.473 42.5271L345.994 40.9297L354.883 5.12891L363.239 7.19614L367.746 28.8082L367.934 28.8708L382.268 11.9571L390.217 13.9303L381.329 49.7311L374.85 48.1337L380.859 23.9846L380.671 23.922L368.497 38.0794L362.863 36.6699Z" fill="black"/>
<path d="M408.899 21.0703L417.349 24.5157L414.25 63.0728L407.271 60.2225L408.147 51.5464L396.317 46.7229L390.903 53.551L384.205 50.826L408.899 21.0703ZM400.261 41.774L408.805 45.2507L410.495 29.12L410.307 29.0574L400.261 41.774Z" fill="black"/>
<path d="M436.594 75.6926L435.185 46.7826L435.029 46.6886L422.948 67.9248L417.158 64.6047L435.373 32.5625L441.664 36.1332L442.947 64.9805L443.104 65.0745L455.184 43.8383L461.006 47.1584L442.759 79.2006L436.625 75.6926H436.594Z" fill="black"/>
<path d="M487.297 83.1576L487.141 83.0323L466.422 96.9079L461.133 92.3349L478.565 58.6953L484.23 63.5815L471.836 85.9453L471.993 86.0705L493.275 71.3806L497.876 75.3585L486.578 98.6306L486.734 98.7559L507.015 83.2203L512.617 88.0751L481.914 110.282L476.656 105.741L487.266 83.1263L487.297 83.1576Z" fill="black"/>
<path d="M518.564 94.8984L523.102 100.192L511.459 110.183L520.786 121.083L532.428 111.123L536.967 116.416L508.987 140.409L504.449 135.116L516.154 125.061L506.827 114.161L495.122 124.216L490.584 118.922L518.564 94.9298V94.8984Z" fill="black"/>
<path d="M527.394 133.8C536.846 127.786 547.8 130.072 553.684 139.312C559.568 148.552 557.001 159.484 547.55 165.497C538.098 171.511 527.144 169.225 521.26 159.985C515.251 150.557 517.942 139.814 527.394 133.8ZM543.794 159.452C550.21 155.349 552.213 148.615 548.426 142.664C544.639 136.744 537.691 135.679 531.275 139.782C524.765 143.917 522.825 150.651 526.581 156.602C530.336 162.553 537.284 163.618 543.794 159.452Z" fill="black"/>
<path d="M573.083 175.957L575.681 182.441L561.44 188.141L566.792 201.453L581.032 195.752L583.63 202.236L549.422 215.955L546.825 209.471L561.159 203.739L555.807 190.428L541.473 196.16L538.875 189.676L573.083 175.957Z" fill="black"/>
<path d="M589.14 221.091L591.425 229.955L558.657 250.439L556.779 243.141L564.259 238.662L561.067 226.29L552.366 226.008L550.551 219.023L589.14 221.091ZM567.389 226.509L569.705 235.467L583.663 227.198L583.601 227.011L567.389 226.509Z" fill="black"/>
<path d="M583.696 258.204L580.566 265.502C578.97 269.261 576.466 272.487 571.615 273.207C565.293 274.115 560.473 269.887 559.472 262.934C558.376 255.385 562.445 250.937 568.204 249.246L571.333 255.009C568.454 255.761 565.105 258.204 565.669 262.244C566.107 265.22 568.172 266.567 570.426 266.222C572.084 265.972 573.524 265.063 574.557 262.589L577.28 255.98C578.751 252.378 580.441 248.776 586.043 247.962C591.301 247.21 596.496 250.624 597.467 257.39C598.374 263.748 595.683 267.82 590.644 270.044L587.639 264.406C590.831 262.746 591.739 260.584 591.395 258.047C591.051 255.761 589.486 254.351 587.389 254.665C585.386 254.946 584.509 256.137 583.664 258.173L583.696 258.204Z" fill="black"/>
<path d="M562.754 313.141L587.448 298.013V297.825L563.036 297.386L563.161 290.684L600.029 291.341L599.904 298.577L575.21 313.549V313.736L599.622 314.175L599.497 320.878L562.629 320.22L562.754 313.141Z" fill="black"/>
<path d="M580.722 327.521C591.801 329.307 598.436 338.328 596.683 349.165C594.931 360.002 585.761 366.423 574.713 364.638C563.665 362.852 556.998 353.832 558.751 342.994C560.535 331.969 569.674 325.736 580.722 327.521ZM575.902 357.59C583.413 358.812 589.391 355.085 590.518 348.163C591.644 341.209 587.138 335.79 579.626 334.569C572.021 333.316 566.075 337.043 564.948 343.997C563.821 350.95 568.265 356.338 575.902 357.59Z" fill="black"/>
<path d="M586.853 388.19L584.756 394.861L549.609 383.711L551.706 377.039L586.853 388.19Z" fill="black"/>
<path d="M549.362 407.45L568.015 406.448L568.109 406.26L545.356 396.237L548.048 390.129L581.755 405.007L578.281 412.869L556.247 413.62L556.154 413.808L570.363 430.816L567.045 438.333L533.338 423.455L536.029 417.348L558.783 427.371L558.876 427.183L547.015 412.775L549.362 407.481V407.45Z" fill="black"/>
<path d="M556.841 455.563L551.99 463.331L514.559 453.684L518.533 447.295L526.921 449.644L533.681 438.806L527.891 432.291L531.709 426.152L556.81 455.563H556.841ZM537.938 443.505L533.055 451.335L548.673 455.751L548.766 455.595L537.938 443.505Z" fill="black"/>
<path d="M519.001 479.869L506.827 494.685C506.389 494.528 505.669 494.058 504.417 493.024C496.405 486.353 494.965 476.455 502.038 467.873C509.111 459.26 520.159 458.477 528.797 465.587C537.436 472.697 538.625 483.879 531.677 492.304C527.483 497.378 521.881 499.633 516.247 499.07V492.931C520.222 493.369 524.197 491.74 526.951 488.389C531.395 483.002 530.237 475.954 524.322 471.068C518.375 466.15 511.302 466.401 506.827 471.82C502.946 476.518 503.102 481.623 506.389 485.601L514.276 475.985L518.97 479.869H519.001Z" fill="black"/>
<path d="M513.681 511.13L508.737 516.048L482.76 489.894L487.705 484.977L513.681 511.13Z" fill="black"/>
<path d="M460.881 508.943L488.392 517.964L488.548 517.838L473.056 498.951L478.22 494.691L501.599 523.194L496.028 527.767L468.643 518.653L468.487 518.778L483.979 537.665L478.815 541.925L455.436 513.422L460.913 508.943H460.881Z" fill="black"/>
<path d="M462.542 552.847L454.781 557.702L425.393 532.582L431.777 528.604L438.287 534.399L449.116 527.633L446.769 519.239L452.903 515.418L462.542 552.879V552.847ZM450.837 533.71L443.013 538.596L455.094 549.433L455.25 549.339L450.837 533.71Z" fill="black"/>
<path d="M432.966 562.809L441.259 558.738L443.951 564.219L421.135 575.495L418.444 570.013L426.737 565.942L413.123 538.316L419.383 535.215L432.997 562.841L432.966 562.809Z" fill="black"/>
<path d="M414.874 577.879L408.396 580.479L394.688 546.244L401.166 543.645L414.874 577.879Z" fill="black"/>
<path d="M395.597 566.233C398.664 577.007 393.375 586.874 382.827 589.881C372.28 592.888 362.578 587.344 359.511 576.569C356.444 565.794 361.733 555.928 372.28 552.921C383.015 549.851 392.53 555.458 395.597 566.233ZM366.365 574.658C368.462 581.988 374.346 585.809 381.106 583.898C387.866 581.956 390.84 575.598 388.743 568.269C386.614 560.845 380.731 557.055 373.97 558.997C367.21 560.939 364.206 567.266 366.334 574.69L366.365 574.658Z" fill="black"/>
<path d="M327.868 562.44L346.521 584.585H346.709L343.454 560.342L350.089 559.465L355.003 596.017L347.836 596.988L329.339 574.812H329.151L332.406 599.056L325.771 599.933L320.857 563.38L327.868 562.44Z" fill="black"/>
<path d="M301.674 600.993L294.694 600.711L295.32 585.395L280.986 584.8L280.36 600.116L273.381 599.834L274.883 563L281.862 563.282L281.236 578.724L295.571 579.319L296.197 563.877L303.176 564.159L301.674 600.993Z" fill="black"/>
<path d="M253.947 597.177L244.934 595.643L239.645 557.336L247.062 558.589L248.095 567.234L260.676 569.395L264.495 561.564L271.599 562.786L253.916 597.177H253.947ZM257.922 575.127L248.815 573.561L250.661 589.691H250.849L257.922 575.127Z" fill="black"/>
<path d="M222.305 577.009L216.922 571.183C214.136 568.176 212.227 564.574 213.573 559.844C215.326 553.705 221.147 551.012 227.907 552.954C235.231 555.052 237.641 560.596 236.796 566.547L230.286 567.017C230.755 564.073 229.941 560.001 226.029 558.905C223.15 558.09 221.084 559.437 220.458 561.598C219.989 563.196 220.239 564.919 222.054 566.86L226.968 572.06C229.628 574.879 232.257 577.917 230.693 583.367C229.222 588.472 223.995 591.824 217.422 589.945C211.226 588.159 208.628 584.056 208.691 578.543L215.044 578.105C215.232 581.676 216.828 583.43 219.3 584.119C221.522 584.745 223.463 583.868 224.026 581.832C224.59 579.89 223.87 578.606 222.336 577.009H222.305Z" fill="black"/>
<path d="M180.834 535.378L184.433 564.1L184.621 564.194L195.075 542.112L201.115 544.963L185.341 578.289L178.8 575.188L175.326 546.529L175.138 546.435L164.685 568.517L158.645 565.666L174.418 532.34L180.803 535.378H180.834Z" fill="black"/>
<path d="M160.305 545.805C154.109 555.139 143.186 557.488 134.047 551.443C124.908 545.366 122.843 534.372 129.039 525.038C135.236 515.704 146.159 513.355 155.298 519.4C164.593 525.571 166.502 536.471 160.305 545.805ZM134.955 529.016C130.729 535.375 131.668 542.328 137.521 546.243C143.374 550.127 150.165 548.248 154.359 541.921C158.615 535.5 157.676 528.546 151.824 524.662C145.971 520.779 139.211 522.595 134.955 529.016Z" fill="black"/>
<path d="M96.7055 503.299L96.8307 503.425L118.52 491.147L123.433 496.095L103.497 528.325L98.2391 523.032L112.292 501.671L112.166 501.545L89.8201 514.575L85.5324 510.253L98.5834 487.889L98.4582 487.764L77.0509 501.733L71.8242 496.471L104.092 476.645L108.974 481.562L96.7055 503.299Z" fill="black"/>
<path d="M67.4773 489.96L63.127 484.51L91.9517 461.582L96.3021 467.032L67.4773 489.96Z" fill="black"/>
<path d="M75.3942 437.65L63.4074 463.992L63.5326 464.148L84.001 450.837L87.6315 456.443L56.741 476.552L52.7976 470.507L64.8783 444.29L64.7844 444.134L44.316 457.446L40.6855 451.839L71.5447 431.73L75.3942 437.65Z" fill="black"/>
<path d="M43.8149 420.774L35.7402 403.39C36.0844 403.077 36.8043 402.638 38.2752 401.949C47.727 397.596 57.304 400.571 61.9986 410.657C66.6932 420.774 62.6558 431.079 52.4842 435.808C42.3126 440.538 31.7341 436.779 27.1334 426.881C24.348 420.899 24.7548 414.854 27.6968 410.03L33.2364 412.661C31.1082 416.107 30.8578 420.398 32.7043 424.313C35.6463 430.64 42.5004 432.676 49.4484 429.419C56.459 426.161 59.2757 419.677 56.3338 413.319C53.7674 407.775 49.1041 405.708 44.1278 406.961L49.3545 418.237L43.8462 420.805L43.8149 420.774Z" fill="black"/>
<path d="M27.2264 389.449L29.073 381.712C30.0119 377.734 31.9523 374.132 36.6469 372.629C42.7186 370.687 48.1956 374.038 50.3551 380.741C52.6711 388.008 49.4162 393.082 44.0018 395.682L39.9644 390.514C42.656 389.292 45.5979 386.348 44.346 382.433C43.4384 379.582 41.1537 378.611 38.9942 379.301C37.398 379.802 36.1148 380.961 35.5202 383.56L33.924 390.514C33.079 394.304 31.9836 398.156 26.6005 399.879C21.5616 401.508 15.8342 399.002 13.7686 392.487C11.7969 386.348 13.7686 381.9 18.4006 378.862L22.2815 383.905C19.4021 386.066 18.87 388.353 19.6212 390.796C20.341 392.988 22.125 394.116 24.1593 393.489C26.0684 392.863 26.757 391.579 27.2264 389.417V389.449Z" fill="black"/>
<path d="M25.7243 342.023L19.7152 347.755L27.2265 351.326L24.9418 355.93L17.6496 351.921L16.5542 360.284L11.484 359.438L12.9863 351.326L4.81768 352.829L3.97266 347.724L12.2038 346.596L8.19779 339.392L12.7359 336.98L16.3351 344.466L22.0625 338.39L25.7556 342.023H25.7243Z" fill="black"/>
<path d="M27.792 300.706L6.8541 312.076V312.264L36.9308 312.765L36.8682 316.805L0 316.21L0.0938918 311.136L23.0661 298.826V298.639L0.500756 285.64L0.594648 280.785L37.4628 281.38L37.4002 285.421L7.32356 284.92V285.108L27.8546 297.104L27.792 300.706Z" fill="black"/>
<path d="M29.636 246.059C37.3977 247.218 42.061 253.2 40.8717 261.281C39.6511 269.362 33.4543 273.685 25.6613 272.526L1.65625 268.924L2.2509 264.946L26.6315 268.611C32.0772 269.425 36.3962 266.199 37.2099 260.749C38.0237 255.362 34.8627 250.945 29.4169 250.131L5.03636 246.466L5.631 242.488L29.636 246.09V246.059Z" fill="black"/>
<path d="M8.16602 230.735L9.29272 226.851L25.223 231.424L30.4184 213.289L14.4881 208.716L15.6148 204.832L51.0433 215.012L49.9166 218.896L33.8611 214.291L28.6657 232.427L44.7212 237.031L43.5945 240.915L8.16602 230.735Z" fill="black"/>
<path d="M23.506 184.73L25.509 180.031L64.4115 182.788L62.6901 186.765L52.0491 185.888L45.9461 200.109L53.8956 207.219L52.2369 211.071L23.4434 184.73H23.506ZM43.2232 197.603L48.3873 185.575L28.1692 183.853L28.0754 184.04L43.1919 197.603H43.2232Z" fill="black"/>
<path d="M66.4445 160.645L42.6585 159.862L42.5646 160.019L68.2597 175.68L66.1628 179.125L34.6777 159.956L37.3067 155.634L63.346 156.636L63.4399 156.479L50.5454 133.896L53.0805 129.73L84.5656 148.899L82.4687 152.345L56.7736 136.684L56.6797 136.841L68.3536 157.576L66.4758 160.645H66.4445Z" fill="black"/>
<path d="M99.1184 130.911L67.7272 116.221L66.1311 118.038L91.2002 139.963L88.5399 143.001L60.8105 118.727L67.1952 111.429L98.4299 126.244L100.12 124.334L81.4667 95.1418L87.8827 87.8125L115.612 112.087L112.952 115.125L87.8827 93.1998L86.2865 95.0165L104.783 124.459L99.1184 130.943V130.911Z" fill="black"/>
<path d="M104.625 73.1911L108.537 69.9023L142.119 89.7917L138.833 92.5793L129.694 87.0354L117.864 97.027L121.807 106.956L118.615 109.65L104.625 73.1911ZM116.518 93.519L126.502 85.0621L109.194 74.4753L109.038 74.6006L116.518 93.519Z" fill="black"/>
<path d="M145.47 87.3439L125.471 56.3667L135.548 49.8517C145.125 43.65 155.234 45.5607 161.369 55.0512C167.566 64.6356 165.124 74.6273 155.547 80.829L145.47 87.3439ZM157.895 57.3063C152.856 49.5072 145.031 47.9411 137.458 52.8273L130.76 57.1497L146.878 82.1445L153.576 77.8221C161.118 72.9359 162.902 65.1054 157.895 57.3063Z" fill="black"/>
<path d="M180.65 25.4616L185.345 23.457L211.541 52.3984L207.566 54.0897L200.493 46.1027L186.253 52.1478L187.098 62.7972L183.248 64.4259L180.65 25.4616ZM186.002 48.3892L198.02 43.2837L184.625 28.03L184.437 28.0927L186.002 48.3578V48.3892Z" fill="black"/>
<path d="M204.998 16.0027L208.848 14.8438L218.518 46.698L233.698 42.0937L234.73 45.5391L215.702 51.3336L204.998 16.0653V16.0027Z" fill="black"/>
<path d="M230.727 8.76771L234.67 7.85938L242.901 43.8168L238.989 44.7251L230.758 8.76771H230.727Z" fill="black"/>
<path d="M274.853 24.2029L269.47 17.8446L265.464 25.1426L260.988 22.6055L265.432 15.5581L257.17 13.992L258.328 8.98056L266.34 10.9225L265.307 2.68489L270.44 2.12109L271.097 10.4214L278.515 6.85068L280.643 11.5176L272.975 14.6811L278.702 20.7262L274.884 24.2029H274.853Z" fill="black"/>
</g>
<defs>
<clipPath id="clip0_664_203">
<rect width="600" height="600" fill="white" transform="translate(0 0.996094)"/>
</clipPath>
</defs>
</svg>
